<?xml version="1.0" encoding="utf-8"?>
<!-- Generator: Adobe Illustrator 27.5.0, SVG Export Plug-In . SVG Version: 6.00 Build 0)  -->
<svg version="1.1" xmlns="http://www.w3.org/2000/svg" xmlns:xlink="http://www.w3.org/1999/xlink" x="0px" y="0px"
	 viewBox="0 0 1100 800" style="enable-background:new 0 0 1100 800;" xml:space="preserve">
<g id="background">
	<rect y="0" style="fill:#FFFFFF;" width="1100" height="800"/>
</g>
<g id="Shadow">
	<g>
		<path style="fill:#F1F2F2;" d="M521.964,681.44c-28.193,0.076-56.385,0.687-84.528,3.512c-10.611,1.065-21,3.408-31.635,4.353
			c-21.244,1.888-42.107,5.408-63.426,7.033c-17.168,1.308-34.408,2.08-51.526,3.739c-16.049,1.556-33.816,1.197-49.742-1.374
			c-11.79-1.903-23.633-2.974-35.225-6.03c-12.967-3.419-27.055-5.863-40.565-5.776c-19.266,0.125-38.028,0.14-56.466,6.177
			c-6.472,2.119-14.395,5.603-19.31,10.05c-11.251,10.181-12.774,35.584-1.54,46.143c18.921,17.771,59.305,24.745,85.827,25.074
			c29.063,0.361,57.296-1.586,86.401-2.731c27.045-1.064,54.023-2.577,81.113-2.524c55.328,0.109,110.664,0,165.893-3.335
			c51.888-3.134,103.907-2.058,155.909-2.058c53.326,0,106.291,0.378,159.233,6.774c23.067,2.787,46.568,3.762,69.75,5.714
			c20.762,1.748,40.714-0.034,61.394-1.65c17.365-1.357,34.616-5.382,50.391-12.185c12.487-5.385,34.749-22.116,38.579-34.97
			c10.736-36.037-151.3-35.171-176.179-35.09c-27.831,0.091-55.884,0.917-83.693-0.041c-11.698-0.403-23.224-2.466-34.641-4.727
			c-11.372-2.252-22.83-1.679-34.362-2.626c-48.092-3.947-96.291-3.37-144.536-3.37C553.379,681.522,537.671,681.398,521.964,681.44
			z"/>
	</g>
</g>
<g id="object">
	<path style="fill:#FFFFFF;" d="M350.243,493.119l47.478,159.675l21.27,10.009l219.075-17.835c0,0,13.88-19.663,13.88-31.233
		c0-11.57,13.718-84.692,13.718-84.692L350.243,493.119z"/>
	<g>
		<g>
			<g>
				<g id="XMLID_71_">
					<path id="XMLID_72_" style="fill:#EACDB0;" d="M534.144,629.73l0.716,43.527c-0.293,12.076,0.796,24.116,1.53,36.152
						c0.682,11.181-1.571,22.704,3.733,33.066c1.663,3.249,5.203,5.512,7.896,1.759c2.075-2.892,1.12-7.898,1.633-11.255
						c3.853-25.233,11.024-49.84,14.602-75.12C568.003,631.379,557.758,632.078,534.144,629.73z"/>
				</g>
				<polygon style="fill:#3B455A;" points="536.617,735.036 533.818,742.297 547.589,754.418 560.204,754.937 564.283,748.281 
					547.317,733.529 				"/>
			</g>
			<g>
				<g id="XMLID_69_">
					<path id="XMLID_70_" style="fill:#EACDB0;" d="M503.309,630.154c0,0-7.939,42.804-7.939,42.804
						c-2.752,19.148-9.007,37.795-11.759,56.944c-0.632,4.403-0.314,9.219-2.154,13.372c-1.8,4.063-5.324,4.224-8.434,1.467
						c-4.166-3.693-2.244-10.291-2.167-15.336c0.509-33.604-2.134-66.731-2.77-100.39c-0.008-0.441,0.011-0.947,0.352-1.227
						c0.277-0.228,0.673-0.223,1.031-0.199C472.737,627.808,503.138,631.079,503.309,630.154z"/>
				</g>
				<polygon style="fill:#3B455A;" points="470.758,736.823 466.393,743.265 477.072,758.181 489.244,761.534 494.721,755.971 
					481.522,737.77 				"/>
			</g>
			<polygon style="fill:#474EBB;" points="579.005,657.425 573.067,595.196 570.203,554.764 560.574,521.74 508.582,513.671 
				444.302,524.689 441.213,537.178 453.584,652.779 515.583,657.425 514.743,585.476 524.306,630.073 523.901,657.425 			"/>
		</g>
		<path style="fill:#FFFFFF;" d="M457.948,400.157c-0.087,2.101-0.145,4.201-0.182,6.297c-0.752,42.685,1.601,85.914,1.871,128.952
			c22.043-3.451,44.327-5.351,66.635-5.689c5.163-0.078,28.64,3.547,31.909,0.464c4.436-4.184-0.443-3.396-0.118-8.846
			c0.42-7.053-2.968-12.828-1.688-21.185c1.504-9.822,4.497-19.537,6.221-29.357c3.456-19.691,5.537-39.623,6.212-59.604
			c0.599-17.722-0.044-36.101-7.665-52.112c-18.794-39.483-79.385-38.773-96.011,2.453
			C460.207,373.74,458.497,386.96,457.948,400.157z"/>
		<path style="fill:#EACDB0;" d="M582.383,317.493c6.479-8.393,9.296-17.47,12.048-28.875c2.048-8.486,3.764-17.07,5.445-25.635
			c1.11-5.667,2.12-10.625,2.228-16.322c0.091-4.768,2.778-11.359-1.41-15.174c0.847-1.92,3.68-2.583,5.291-1.239
			c0.253,0.211,0.491,0.468,0.81,0.551c0.546,0.142,1.078-0.281,1.41-0.738c0.969-1.336,1.095-3.078,1.444-4.693
			c0.562-2.601,1.522-6.813,3.479-8.675c1.587-1.511,3.672-2.363,5.704-3.183c0.376-0.152,0.788-0.306,1.177-0.192
			c0.329,0.096,0.574,0.365,0.801,0.622c2.092,2.372,4.432,4.693,6.205,7.268c-2.83,2.353-3.327,5.858-4.95,8.995
			c-2.13,4.12-4.731,7.378-5.089,12.222c-0.555,7.528-0.522,15.091-1.176,22.627c-1.279,14.724-3.464,29.339-5.562,43.962
			c-1.418,9.686-2.864,19.595-6.846,28.622c-3.922,8.889-9.494,14.22-16.921,20.48c-1.708,1.439-3.48,2.915-5.619,3.559
			c-3.244,0.977-6.812-0.154-9.603-2.074c-7.379-5.076-10.009-15.966-5.762-23.85c2.281-4.234,6.099-7.381,9.686-10.584
			C578.003,322.644,580.37,320.102,582.383,317.493z"/>
		<path style="fill:#8EC3CB;" d="M526.32,344.771l-16.457,29.991c0.86,30.296,1.72,60.592,2.58,90.888
			c0.396,13.962,0.793,27.924,1.189,41.886c0.138,4.848,0.258,9.697,0.413,14.544c0.07,2.176-0.531,5.839,0.71,7.615
			c2.694,3.855,12.543,2.653,16.839,2.991c6.7,0.527,13.497,1.075,19.807,3.388c4.201,1.54,8.183,3.859,12.615,4.481
			c0.996,0.14,2.109,0.16,2.891-0.472c0.874-0.707,1.023-1.96,1.106-3.081c1.54-20.799,1.572-42.241,2.726-63.263
			c0.944-17.204,3.352-35.383,1.859-52.608c-0.025-0.287-0.053-0.575-0.105-0.859c-1.526-8.286,0-35.655,0-35.658
			c0.064-1.151,4.002-4.134,4.762-4.919c3.915-4.043,7.829-8.086,11.744-12.129c7.811-8.068,22.892-18.035,16.83-31.084
			c-0.737-1.586-1.86-2.962-3.054-4.241c-8.852-9.48-20.164-14.796-26.5-26.468c-11.088,5.469-20.124,16.274-31.918,20.774
			c-6.14,2.337-12.632,3.141-19.051,1.567c-3.776-0.926-11.908-3.868-9.866,3.604C516.61,335.994,523.433,341.336,526.32,344.771z"
			/>
		<path style="fill:#8EC3CB;" d="M490.517,347.591l16.457,29.99c-0.345,0-2.087,73.516-2.228,78.477
			c-0.536,18.871-1.071,37.742-1.607,56.612c-0.149,5.245,0.556,11.389-0.47,16.545c-1.432,7.199-9.01,5.781-15.467,6.363
			c-14.124,1.273-28.995,3.685-43.158,2.97c-4.086-0.206,1.291-85.465,1.284-93.421c-0.027-28.616-5.931-60.364,8.605-86.314
			c4.229-7.55,11.685-19.654,19.915-23.382c7.669-3.474,18.649-4.065,26.974-6.012l0.434,5.395L490.517,347.591z"/>
		<g>
			<g>
				<path style="fill:#3B455A;" d="M526.235,274.948c2.591,4.54,3.84,9.77,4.07,14.993c0.061,1.388,0.156,2.992,1.279,3.812
					c1.202,0.877,0.146,2.803,1.06,1.629c0.914-1.174,4.019-5.252,4.158-6.733c0.327-3.471,0.322-6.973-0.015-10.443
					c-0.293-3.018-0.91-6.171-2.884-8.472c-1.171-1.364-2.734-2.323-4.272-3.253c-2.231-1.348-4.531-2.708-7.094-3.185
					c-4.418-0.823-7.127,0.762-3.229,3.842C522.099,269.345,524.46,271.837,526.235,274.948z"/>
				<g>
					<path style="fill:#EACDB0;" d="M498.634,334.189c0.03,2.137-0.409,4.354,1.477,6.012c0.906,0.797,2.132,1.116,3.324,1.305
						c3.082,0.488,6.274,0.262,9.256-0.657c1.227-0.378,2.449-0.891,3.375-1.779c1.094-1.05,1.149-2.046,1.202-3.421
						c0.061-1.611,0.387-3.249,0.598-4.883c0.461-3.573,0.669-7.176,0.772-10.776c5.293-0.908,11.518-2.62,13.328-8.164
						c0.57-1.747,0.59-3.646,0.604-5.504c0.056-7.682,0.113-15.363,0.169-23.045c0.02-2.657,0.026-5.395-0.884-7.86
						c-1.596-4.326-5.653-6.905-9.631-8.527c-10.151-4.141-21.983-3.976-31.352,1.914c-2.494,1.568-4.847,3.583-6.283,6.32
						c-2.214,4.22-1.936,9.429-1.592,14.299c0.318,4.494,0.635,8.989,0.952,13.483c0.365,5.169,1.142,11.119,5.156,13.849
						c2.131,1.449,4.885,1.716,6.722,3.591c3.206,3.274,1.678,8.165,2.626,12.134C498.583,333.035,498.626,333.609,498.634,334.189z
						"/>
				</g>
				<path style="fill:#3B455A;" d="M534.431,303.259c-0.086-1.424-0.708-5.598-2.85-2.975c-0.56,0.686-0.698,1.656-0.733,2.569
					c-0.034,0.913,0.007,1.853-0.281,2.713c-0.661,1.974-2.845,2.872-4.791,2.837c-0.774-0.014-1.563-0.141-2.247-0.531
					c-0.664-0.378-1.192-0.979-1.706-1.57c-1.249-1.433-2.498-2.866-3.747-4.299c-2.147-2.463-6.405-1.398-9.298-1.021
					c-3.334,0.435-6.669,1.441-9.394,3.635c-0.275,0.221-0.543,0.454-0.812,0.686c-0.657,0.566-1.317,1.128-2.08,1.499
					c-2.575,1.254-5.763-0.054-7.568-2.399c-0.827-1.075-1.599-2.458-2.883-2.638c-1.005-0.141-1.983,0.58-2.499,1.52
					c-0.516,0.94-0.654,2.062-0.724,3.152c-0.254,3.968,0.293,8.059,2.013,11.578c3.73,7.632,10.94,8.568,18.186,8.397
					c2.864-0.068,5.729-0.135,8.593-0.203c5.237-0.123,10.772-0.341,15.183-3.385c3.891-2.685,6.204-7.251,7.153-12.033
					C534.436,308.325,534.583,305.777,534.431,303.259z M515.272,314.076c-2.758,1.854-5.797,1.954-8.871,1.029
					c-1.306-0.393-0.752-2.586,0.557-2.192c2.547,0.767,4.951,0.747,7.248-0.797C515.36,311.339,516.42,313.304,515.272,314.076z"/>
				<path style="fill:#3B455A;" d="M535.525,261.635c0.506-1.861,0.88-3.759,1.118-5.673c-1.772,0.622-3.702,0.787-5.555,0.476
					c-0.004-1.104-0.009-2.209-0.013-3.314c-0.008-0.919-12.436-1.562-13.446-1.645c-9.454-0.775-18.1-1.513-26.649,3.561
					c-7.302,4.334-11.984,10.806-13.104,19.231c-1.07,8.048,1.564,18.56,6.218,25.239c-0.027-2.143-1.26-7.197-0.754-9.233
					c0.31-2.041,1.015-4.008,1.987-5.825c1.942-3.627,4.951-6.68,8.427-8.858c5.541-3.473,11.983-5.309,18.418-6.205
					c5.895-0.821,13.079-1.579,18.904-0.017c2.799,0.751,3.264,1.453,4.96-1.373c0.299-0.498,2.669-6.316,2.437-6.319
					C537.489,261.665,536.507,261.65,535.525,261.635z"/>
			</g>
		</g>
		<g>
			<g>
				<path style="fill:#EACDB0;" d="M436.374,324.378c4.362-4.506,5.381-11.261,2.544-16.873
					c-5.184-10.254-10.367-20.507-15.55-30.761c-2.911-5.758-7.971-12.438-8.768-18.7c-1.409-11.07,1.096-24.095,2.129-35.162
					c0.524-5.62,0.057-13.429,2.38-18.6c0.435-0.97,7.008-8.399,6.83-8.626c-0.014-0.021-1.378-2.075-1.378-2.075l-2.056,1.386
					l-1.717-0.345l4.677-5.656l-6.764-4.956l-9.031,3.583c-0.483,6.082,0.597,12.418-1.335,18.288
					c-0.817,2.482-2.034,4.812-3.06,7.215c-1.762,4.129-2.955,8.463-4.321,12.73c-1.322,4.129-3.457,8.011-4.701,12.091
					c-2.776,9.106-5.488,18.231-8.231,27.346l23.846,54.645C416.12,329.654,428.992,332.002,436.374,324.378z"/>
			</g>
			<path style="fill:#8EC3CB;" d="M475.931,332.178c-9.864-5.755-18.347-13.805-24.741-23.262c-0.167-0.354-0.331-0.706-0.487-1.055
				c-0.601-1.342-7.333-16.019-7.527-15.932c-0.167,0.075-0.335,0.15-0.502,0.225l-1.458,0.742c-0.07,0-0.134,0-0.209,0.001
				c-3.421,0.046-9.129,4.108-12.301,5.533c-8.431,3.788-16.861,7.575-25.291,11.363c-0.601,0.27-1.23,0.563-1.608,1.1
				c-0.449,0.637-0.444,1.465-0.37,2.257l-2.25,1.146c1.105,1.55,2.093,3.159,2.997,4.81c0.959,6.431,2.584,12.78,6.506,17.905
				c0.232,0.303,0.482,0.591,0.726,0.882c2.039,6.802,3.942,13.695,6.847,20.122c7.809,17.279,22.639,30.695,30.096,48.128
				c6.053-1.766,10.251-7.2,13.468-12.624c6.324-10.661,10.528-22.419,14.692-34.094c2.118-5.937,4.236-11.873,6.353-17.81
				c0.37-1.038,0.745-2.109,0.688-3.209C481.408,335.485,478.458,333.652,475.931,332.178z"/>
		</g>
	</g>
	<g>
		<g>
			<polygon style="fill:#F7C9A9;" points="390.194,395.022 400.064,385.307 415.626,385.676 417.402,393.569 393.886,403.727 			"/>
		</g>
		<path style="fill:#3B455A;" d="M285.325,319.195c-1.882-21.203-10.035-25.062-10.035-25.062l-0.004,0.001
			c-2.161-1.767-4.696-3.073-7.409-3.728c-4.169,3.747-6.771,9.19-7.072,14.793l-0.611,0.007c2.554,0.061,5.07,0.646,7.413,1.651
			c1.788,12.638,4.511,32.747,4.609,38.62c0.146,8.767,2.218,8.93,8.113,10.851c5.895,1.921,12.119-3.011,12.119-3.011
			S287.207,340.397,285.325,319.195z"/>
		<g>
			<polygon style="fill:#3B455A;" points="251.368,355.662 225.784,365.739 183.956,400.396 164.835,338.252 141.532,342.435 
				156.47,418.322 180.969,440.431 251.478,401.591 			"/>
		</g>
		<g>
			<g>
				<g>
					<g>
						<polygon style="fill:#1A3151;" points="227.259,740.045 226.583,746.732 238.713,755.07 245.792,749.209 240.066,741.696 
							227.936,733.357 						"/>
					</g>
				</g>
				<g>
					<g>
						<polygon style="fill:#8EC3CB;" points="227.562,535.587 225.507,555.896 243.698,625.675 226.807,737.803 239.24,742.094 
							272.025,632.623 277.228,600.776 277.038,533.358 						"/>
					</g>
				</g>
			</g>
			<g>
				<g>
					<g>
						<polygon style="fill:#8EC3CB;" points="323.187,558.223 297.035,746.11 285.148,746.11 283.009,625.675 261.374,541.142 
													"/>
					</g>
				</g>
				<g>
					<g>
						<polygon style="fill:#3B455A;" points="285.217,744.625 285.217,751.374 298.071,758.123 304.499,751.374 298.071,744.625 
													"/>
					</g>
				</g>
			</g>
			<g>
				<g>
					<g>
						<path style="fill:#3B455A;" d="M228.219,510.672c10.153-68.349,6.527-118.125,7.053-131.793
							c0.526-13.668,9.89-20.76,9.89-20.76c4.113-0.94,7.69-3.651,11.84-4.72c28.071-7.236,43.382,14.723,53.89,38.405
							c12.947,29.18,23.824,59.333,32.618,90.093c7.718,26.996,15.452,54.236,18.689,82.252c1.336,11.56,2.45,22.523-9.905,27.623
							c-19.687,8.126-41.81,7.949-62.603,10.555c-23.885,2.993-47.803,5.18-71.847,6.204
							C205.291,609.065,218.066,579.021,228.219,510.672z"/>
					</g>
				</g>
			</g>
		</g>
		<g>
			<polygon style="fill:#F7C9A9;" points="146.081,341.619 135.556,331.082 139.141,312.559 149.299,312.559 152.287,328.692 
				157.442,331.79 157.442,339.579 			"/>
		</g>
		<g>
			<polygon style="fill:#3B455A;" points="270.599,351.996 297.488,356.776 346.021,403.727 389.528,388.456 403.516,406.29 
				345.291,440.431 283.745,400.994 			"/>
		</g>
		<g>
			<polygon style="fill:#FFFFFF;" points="277.228,353.423 282.176,426.108 244.912,357.014 255.781,353.133 263.544,350.803 			"/>
		</g>
		<g>
			<g>
				<path style="fill:#F7C9A9;" d="M278.537,311.687c-9.263-20.175-34.76-9.957-38.077,9.068
					c-1.886,10.819,3.853,29.621,16.77,29.798c0.65,1.828,1.766,5.281,3.508,6.179c1.886,0.972,6.445-1.534,8.248-2.452
					c0.5-0.255,1.016-0.545,1.305-1.026c0.361-0.602,0.121-1.916-0.226-3.352c1.38-0.445,2.75-1.076,4.094-1.921
					c5.64-3.546,8.674-10.346,8.971-17.01C283.427,324.307,281.321,317.75,278.537,311.687z"/>
			</g>
		</g>
		<g>
			<g>
				<path style="fill:#3B455A;" d="M267.355,290.477c0,0,5.404,10.847-8.474,17.681c-13.878,6.834-20.553,20.681-15.011,32.171
					s18.603,17.725,13.655,22.341c-4.948,4.615-26.789,6.655-26.789,6.655s-23.373-39.565-10.747-62.34
					C232.616,284.209,257.333,277.391,267.355,290.477z"/>
			</g>
		</g>
	</g>
	<g>
		<g>
			<g>
				<g>
					<polygon style="fill:#3B455A;" points="757.996,488.134 763.092,523.2 752.865,720.98 735.709,717.382 707.248,492.538 					
						"/>
				</g>
				<g>
					<polygon style="fill:#3B455A;" points="673.723,481.547 670.408,612.664 703.71,725.847 723.121,718.629 706.773,617.693 
						721.784,480.428 					"/>
				</g>
				<g>
					<path style="fill:#3B455A;" d="M723.188,708.029l-23.238,10.651l7.801,16.249l-12.188,7.678c0,0-1.148,6.766,2.945,9.622
						c4.093,2.856,30.608-19.415,30.608-19.415L723.188,708.029z"/>
				</g>
				<g>
					<path style="fill:#3B455A;" d="M757.996,711.872l-25.206,4.257l3.317,17.717l-13.763,4.253c0,0-2.865,6.236,0.347,10.056
						c3.212,3.821,34.597-10.808,34.597-10.808L757.996,711.872z"/>
				</g>
			</g>
			<g>
				<path style="fill:#3B455A;" d="M708.999,267.722c1.797,5.835,4.374,11.429,7.642,16.586c0.077-10.714,1.634-21.416,4.613-31.707
					c0.227-0.785,0.452-1.675,0.04-2.381c-0.385-0.659-1.192-0.922-1.934-1.101C706.109,245.918,705.867,257.551,708.999,267.722z"
					/>
			</g>
			<g>
				<g>
					<path style="fill:#E0C09C;" d="M716.272,284.515c1.382,4.407,3.673,9.393,8.245,12.081c5.384,3.165,11.14,1.549,15.158-0.882
						c13.27-8.029,36.275-52.303,1.681-63.174C709.944,222.669,710.538,266.222,716.272,284.515z"/>
				</g>
				<g>
					<path style="fill:#3B455A;" d="M743.605,284.705c2.066,3.058,6.766,2.362,10.102,0.785
						c13.703-6.479,22.069-22.67,19.424-37.595c-2.213-12.489-17.653-22.187-21.193-6.866c-1.255,5.432,1.887,13.077,0.979,19.116
						C751.621,268.774,747.386,276.954,743.605,284.705z"/>
				</g>
				<g>
					<path style="fill:#3B455A;" d="M709.825,216.596c-15.752,8.713-22.794,27.898-37.201,38.692
						c12.944,5.936,28.326,6.317,41.549,1.03c12.969-5.185,43.721-8.327,39.699-26.297
						C749.78,211.73,723.627,208.961,709.825,216.596z"/>
				</g>
			</g>
			<g>
				<path style="fill:#474EBB;" d="M770.93,329.776c9.018,15.658,8.978,33.388,7.732,50.349c-2.82,38.397,0.838,82.915-12.4,119.62
					c-24.989-0.022-72.894-11.482-97.782-14.04c-4.85-33.381-2.024-52.897,0.711-90.697c1.349-18.638,4.242-43.642,10.839-61.397
					c5.401-14.536,19.799-33.306,41.532-32.709C741.928,301.462,762.729,315.537,770.93,329.776z"/>
			</g>
			<path style="fill:#E0C09C;" d="M730.228,308.652c-2.277,0.963-5.065,0.56-7.766-2.054c-2.324-2.249-1.608-2.983-1.114-6.297
				c0.727-4.885,2.027-9.746,3.033-14.585l13.455,2.798c-0.013-0.003-2.705,13.101-2.91,13.995
				C734.27,305.36,732.505,307.689,730.228,308.652z"/>
		</g>
		<g>
			<g>
				<polygon style="fill:#E0C09C;" points="821.461,253.71 820.929,236.717 813.691,236.745 811.491,248.504 808.087,246.92 
					810.305,261.377 817.818,262.369 				"/>
			</g>
			<g>
				<path style="fill:#474EBB;" d="M750.533,343.464c-7.497-6.231-10.529-17.31-7.247-26.49c0.593-1.658,1.394-3.286,2.662-4.509
					c2.872-2.771,7.364-2.844,11.324-2.342c8.38,1.062,27.421,13.702,32.13,7.747c3.926-4.964,5.075-16.774,6.911-22.83
					c3.868-12.759,7.737-25.518,11.605-38.278l14.794,2.736c-1.581,14.894-3.162,29.788-4.743,44.682
					c-1.028,9.68-2.055,19.361-3.083,29.041c-0.763,7.192,2.194,22.873-4.535,26.592c-1.759,0.972-3.856,1.076-5.866,1.054
					c-13.935-0.157-27.278-5.271-40.269-10.315C759.405,348.683,754.502,346.762,750.533,343.464z"/>
			</g>
		</g>
		<g>
			<polygon style="fill:#E0C09C;" points="595.711,343.402 585.203,333.059 568.636,333.451 566.745,341.854 591.781,352.669 			"/>
		</g>
		<g>
			<polygon style="fill:#474EBB;" points="719.132,312.144 707.172,301.34 642.739,352.669 596.42,336.411 581.528,355.398 
				643.516,391.745 709.04,349.759 			"/>
		</g>
	</g>
	<g>
		
			<rect x="409.885" y="-66.342" transform="matrix(0.1568 -0.9876 0.9876 0.1568 287.0507 593.6022)" style="fill:#D34E4E;" width="162.554" height="390.07"/>
		<g>
			<path style="fill:#FFFFFF;" d="M361.996,126.437c4.469,3.23,11.541,6.861,19.232,8.043c8.282,1.274,13.187-1.485,13.987-6.691
				c0.764-4.969-2.585-8.391-11.642-13.296c-12.542-6.652-20.051-15.314-18.268-26.91c2.091-13.605,15.05-22.271,33.862-19.38
				c8.992,1.382,15.327,4.293,19.732,7.151l-6.26,13.935c-2.957-2.03-8.291-5.151-16.1-6.351c-7.809-1.2-12.141,1.767-12.777,5.909
				c-0.782,5.087,3.369,8.026,13.062,13.513c13.28,7.37,18.777,15.724,17.049,26.964c-2.055,13.369-14.095,23.145-35.983,19.781
				c-9.111-1.401-17.739-5.149-21.853-8.325L361.996,126.437z"/>
			<path style="fill:#FFFFFF;" d="M444.162,137.131l-8.825,19.596l-18.695-2.874l36.632-75.998l23.663,3.637l12.469,83.546
				l-19.404-2.983l-3.005-21.414L444.162,137.131z M466.468,126.753L464.1,109.07c-0.693-4.951-1.203-11.086-1.658-15.999
				l-0.237-0.036c-1.911,4.55-4.022,10.404-6.032,14.817l-7.334,16.192L466.468,126.753z"/>
			<path style="fill:#FFFFFF;" d="M512.315,86.931l18.102,2.783l-9.931,64.6l31.708,4.875l-2.328,15.145l-49.811-7.658
				L512.315,86.931z"/>
			<path style="fill:#FFFFFF;" d="M613.144,149.542l-29.342-4.51l-2.91,18.93l32.773,5.038l-2.275,14.79l-50.875-7.821
				l12.258-79.745l49.219,7.566l-2.273,14.789l-31.117-4.784l-2.547,16.565l29.343,4.511L613.144,149.542z"/>
		</g>
	</g>
	<g>
		<g>
			
				<rect x="414.467" y="579.493" transform="matrix(0.998 -0.0625 0.0625 0.998 -37.6254 30.4335)" style="fill:#D34E4E;" width="106.281" height="74.182"/>
			
				<rect x="491.103" y="568.725" transform="matrix(0.0625 0.998 -0.998 0.0625 1104.0803 14.647)" style="fill:#F3CC30;" width="106.281" height="52.589"/>
			
				<rect x="561.281" y="588.84" transform="matrix(0.0625 0.998 -0.998 0.0625 1167.9971 -19.7138)" style="fill:#7FC5A3;" width="66.423" height="46.041"/>
		</g>
		<g>
			<g>
				<path style="fill:#3B455A;" d="M630.593,710.443H416.799c-10.519,0-19.078-8.559-19.078-19.08c0-4.845,1.819-9.467,5.124-13.011
					l19.438-20.843c2.179-2.337,5.841-2.465,8.177-0.286c2.337,2.181,2.465,5.841,0.286,8.177l-19.438,20.841
					c-1.301,1.395-2.017,3.214-2.017,5.122c0,4.141,3.369,7.51,7.508,7.51h213.794c3.196,0,5.785,2.589,5.785,5.785
					S633.789,710.443,630.593,710.443z"/>
				<g>
					<g>
						
							<ellipse transform="matrix(0.2322 -0.9727 0.9727 0.2322 -387.364 986.2011)" style="fill:#3B455A;" cx="430.967" cy="738.453" rx="24.297" ry="24.297"/>
						
							<ellipse transform="matrix(0.1608 -0.987 0.987 0.1608 -367.1852 1045.0436)" style="fill:#F7F7F7;" cx="430.967" cy="738.453" rx="12.952" ry="12.952"/>
						
							<ellipse transform="matrix(0.2307 -0.973 0.973 0.2307 -386.9786 987.4703)" style="fill:#3B455A;" cx="430.967" cy="738.453" rx="9.158" ry="9.158"/>
					</g>
					<polygon style="fill:#CCD2D9;" points="430.971,710.443 418.961,710.443 418.961,717.274 428.569,737.607 430.971,737.607 
						433.374,737.607 442.982,717.274 442.982,710.443 					"/>
					<rect x="418.961" y="710.443" style="opacity:0.22;fill:#999999;" width="24.021" height="6.831"/>
				</g>
				<g>
					<g>
						
							<ellipse transform="matrix(0.7071 -0.7071 0.7071 0.7071 -342.2676 650.598)" style="fill:#3B455A;" cx="614.207" cy="738.453" rx="24.297" ry="24.297"/>
						
							<ellipse transform="matrix(0.1608 -0.987 0.987 0.1608 -213.4152 1225.8988)" style="fill:#F7F7F7;" cx="614.208" cy="738.453" rx="12.952" ry="12.952"/>
						
							<ellipse transform="matrix(0.7071 -0.7071 0.7071 0.7071 -342.2676 650.598)" style="fill:#3B455A;" cx="614.207" cy="738.453" rx="9.158" ry="9.158"/>
					</g>
					<polygon style="fill:#CCD2D9;" points="614.212,710.443 602.201,710.443 602.201,717.274 611.81,737.607 614.212,737.607 
						616.614,737.607 626.223,717.274 626.223,710.443 					"/>
					<rect x="602.201" y="710.443" style="opacity:0.22;fill:#999999;" width="24.021" height="6.831"/>
				</g>
				<path style="fill:#3B455A;" d="M670.714,526.636c-0.945-1.269-2.373-2.094-3.945-2.284l-312.565-37.644l-10.611-37.625
					c-3.617-13.054-14.645-22.534-28.095-24.151l-45.668-5.501c-3.147-0.379-6.053,1.879-6.435,5.052
					c-0.383,3.171,1.879,6.053,5.052,6.435l45.668,5.501c8.773,1.055,15.967,7.241,18.334,15.781l11.7,41.486l42.669,152.301
					c3.647,12.92,15.574,21.944,29,21.944c0.124,0,0.249-0.004,0.372-0.011l209.303-13.519c14.647-0.094,27.04-10.606,29.509-25.065
					l16.777-98.266C672.047,529.508,671.661,527.906,670.714,526.636z M657.039,548.662h-23.315l1.561-16.448l24.068,2.899
					L657.039,548.662z M647.904,602.166h-19.257l3.979-41.934h22.438L647.904,602.166z M478.257,652.316l-4.387-38.58h24.864
					l2.689,37.084L478.257,652.316z M449.275,654.188l-6.466-40.452h25.24l4.429,38.954L449.275,654.188z M423.314,655.865
					l-9.823-42.129h23.459l6.526,40.827L423.314,655.865z M386.765,602.166l-11.827-41.934h20.136l9.778,41.934H386.765z
					 M401.015,560.232h27.383l6.703,41.934h-24.308L401.015,560.232z M419.771,506.258l6.778,42.403h-28.232l-10.792-46.287
					L419.771,506.258z M456.329,510.661l4.321,38h-28.242l-6.663-41.684L456.329,510.661z M595.214,548.662h-28.534v-24.71
					l29.44,3.545L595.214,548.662z M601.882,528.191l27.657,3.331l-1.626,17.14h-26.907L601.882,528.191z M467.787,560.232h27.067
					l3.041,41.934h-25.341L467.787,560.232z M466.733,602.166H440.96l-6.703-41.934h27.708L466.733,602.166z M500.655,560.232
					h27.722l1.568,41.934h-26.248L500.655,560.232z M534.167,560.232h26.729v41.934h-25.161L534.167,560.232z M566.681,560.232
					h28.038l-1.795,41.934h-26.243V560.232z M560.896,548.662h-27.162l-1.077-28.808l28.239,3.401V548.662z M527.944,548.662
					h-28.129l-2.397-33.052l29.422,3.544L527.944,548.662z M494.015,548.662h-27.543l-4.24-37.289l29.335,3.533L494.015,548.662z
					 M504.535,613.736h25.842l1.314,35.128l-24.494,1.582L504.535,613.736z M536.167,613.736h24.729v33.242l-23.429,1.513
					L536.167,613.736z M566.681,613.736h25.747l-1.34,31.291l-24.407,1.577V613.736z M598.22,613.736h23.52l-2.798,29.492
					l-22.045,1.424L598.22,613.736z M598.715,602.166l1.796-41.934h26.305l-3.979,41.934H598.715z M381.412,501.639l10.964,47.023
					h-20.701l-14.07-49.89L381.412,501.639z M415.645,656.361c-8.201-0.079-15.46-5.616-17.69-13.508l-8.157-29.117h17.753
					l9.912,42.508L415.645,656.361z M625.295,642.831c-0.124,0-0.248,0.004-0.372,0.011l-0.135,0.009l2.762-29.115h18.379
					l-2.331,13.653C642.069,636.336,634.373,642.831,625.295,642.831z"/>
				<path style="fill:#CCD2D9;" d="M671.808,530.501l-1.405,8.489h-41.884c-3.447,0-6.24-2.794-6.24-6.24v-13.651l45.344,5.207
					C670.637,524.674,672.381,527.518,671.808,530.501z"/>
				<path style="fill:#CCD2D9;" d="M242.033,409.516c-6.928-0.813-13.232,4.11-14.068,11.045
					c-0.835,6.935,4.11,13.233,11.045,14.068l62.389,7.514l2.781-25.142L242.033,409.516z"/>
				<polygon style="opacity:0.22;fill:#999999;" points="304.18,417.001 236.856,434.166 301.398,442.144 				"/>
			</g>
			<polygon style="opacity:0.15;fill:#999999;" points="374.939,560.232 373.307,554.447 656.051,554.447 655.064,560.232 			"/>
			<polygon style="opacity:0.15;fill:#999999;" points="389.642,613.736 388.011,607.951 646.908,607.951 645.921,613.736 			"/>
		</g>
	</g>
	<g>
		<g>
			<polygon style="fill:#DD957C;" points="796.948,380.755 789.963,376.976 788.07,370.233 786.437,369.909 785.956,371.902 
				782.782,366.756 778.134,365.181 772.834,368.995 770.937,375.47 775.282,380.332 782.649,382.752 791.987,388.339 			"/>
			<polygon style="fill:#7FC5A3;" points="792.986,372.967 834.116,401.716 876.197,356.548 881.212,407.786 840.203,434.762 
				785.489,386.522 			"/>
		</g>
		<g>
			<polygon style="fill:#3B455A;" points="941.256,748.076 941.956,754.992 929.39,763.617 922.056,757.555 927.989,749.784 
				940.555,741.159 			"/>
			<polygon style="fill:#474EBB;" points="940.942,536.596 943.071,557.603 924.226,629.778 941.724,745.757 928.844,750.195 
				894.879,636.965 889.489,604.024 889.685,534.29 			"/>
		</g>
		<g>
			<polygon style="fill:#474EBB;" points="841.875,560.009 868.968,754.349 881.283,754.349 883.5,629.778 905.913,542.342 			"/>
			<polygon style="fill:#3B455A;" points="881.212,752.813 881.212,759.794 867.895,766.774 861.236,759.794 867.895,752.813 			"/>
		</g>
		<path style="fill:#7FC5A3;" d="M872.131,360.509c0.976-1.595,2.278-2.953,4.066-3.961c12.235-6.905,32.515-0.824,45.791-0.823
			c3.923,41.309,14.77,80.678,21.776,121.236c7.441,43.076,15.818,85.989,25.125,128.7c0.527,2.419-36.948,1.198-40.483,1.258
			c-36.053,0.608-83.247,0.484-118.035-10.417c22.202-59.603,30.307-123.733,47.791-184.887c3.069-10.736,6.714-21.311,9.478-32.134
			C869.242,373.207,868.995,365.636,872.131,360.509z"/>
		<path style="fill:#3B455A;" d="M888.489,299.556c-9.126,2.496-16.311,10.942-17.311,20.35c-4.987-4.646-7.534-11.78-6.615-18.534
			s5.277-12.949,11.324-16.095c5.658,3.003,10.045,8.316,11.923,14.439L888.489,299.556z"/>
		<path style="fill:#DD957C;" d="M869.926,311.784c4.716-24.896,35.82-20.594,44.743-0.433c5.074,11.465-0.242,27.694-10.392,35.671
			c-0.218,2.204-0.504,8.285-2.189,9.758c-1.825,1.596-7.573,0.075-9.826-0.446c-0.625-0.145-1.277-0.324-1.73-0.778
			c-0.567-0.568-0.662-2.089-0.673-3.775c-1.654-0.113-3.347-0.435-5.071-1.001c-7.235-2.375-12.474-9.073-14.641-16.373
			C867.979,327.107,868.508,319.265,869.926,311.784z"/>
		<path style="fill:#3B455A;" d="M915.915,410.607c-0.296-0.017-0.536-0.04-0.711-0.07c-5.487-0.942-14.292-2.713-16.839-8.495
			c-2.61-5.923,2.028-16.669,2.793-22.825c1.163-9.356,1.55-18.794,2-28.204c0.406-8.485-2.626-16.846-7.064-24.089
			c-4.438-7.243-10.245-13.53-15.963-19.812c-2.378-2.613-4.839-5.407-5.566-8.864c-0.804-3.824,0.726-7.861,3.248-10.845
			c3.881-4.593,8.487-6.878,14.348-7.018c20.572-0.491,36.038,11.679,41.874,31.77c8.362,28.79-2.084,56.262-0.528,84.91
			c0.266,4.892,1.883,9.703,4.626,13.762C937.406,409.749,920.353,410.861,915.915,410.607z"/>
	</g>
	<g>
		<g>
			<g>
				
					<ellipse transform="matrix(0.7071 -0.7071 0.7071 0.7071 -76.9249 703.4182)" style="fill:#F6D738;" cx="810.638" cy="444.566" rx="80.131" ry="80.131"/>
			</g>
		</g>
		<g>
			<g>
				
					<ellipse transform="matrix(0.7071 -0.7071 0.7071 0.7071 -76.9249 703.4182)" style="fill:#F3CC30;" cx="810.638" cy="444.566" rx="68.006" ry="68.006"/>
			</g>
		</g>
		<g>
			<g>
				<path style="fill:#EDBD31;" d="M842.226,384.256c7.47,10.092,12.235,22.37,13.144,35.827
					c2.531,37.473-25.795,69.903-63.268,72.435c-13.015,0.879-25.419-1.967-36.176-7.622c13.33,18.011,35.275,29.064,59.291,27.441
					c37.473-2.531,65.8-34.961,63.268-72.435C876.833,415.444,862.441,394.885,842.226,384.256z"/>
			</g>
		</g>
		<g>
			<g>
				<path style="fill:#F7DB5E;" d="M755.092,454.554c-2.234-33.079,22.77-61.707,55.85-63.941
					c19.335-1.306,37.146,6.697,49.058,20.177c-11.555-17.257-31.757-28.035-53.966-26.535
					c-33.079,2.234-58.084,30.862-55.849,63.941c0.928,13.744,6.416,26.091,14.883,35.673
					C759.411,475.423,755.826,465.425,755.092,454.554z"/>
			</g>
		</g>
		<g>
			<path style="fill:#D49A34;" d="M813.281,400.393l0.584,8.644c3.507,0.325,6.422,1.28,8.744,2.865
				c2.323,1.586,4.604,4.105,6.846,7.556l-8.275,5.388c-2.905-4.529-6.446-6.653-10.62-6.372c-2.588,0.175-4.683,1.085-6.284,2.729
				c-1.602,1.644-2.326,3.613-2.171,5.906c0.141,2.088,0.949,3.776,2.424,5.064c1.443,1.261,4.286,2.679,8.528,4.253
				c3.666,1.377,6.709,2.7,9.129,3.969c2.419,1.27,4.261,2.526,5.527,3.769c3.565,3.363,5.519,7.587,5.863,12.674
				c0.338,4.999-0.864,9.51-3.605,13.534c-2.714,3.994-6.511,6.82-11.39,8.478l0.617,9.129l-7.718,0.521l-0.599-8.865
				c-5.826-0.552-10.356-2.239-13.589-5.063c-3.233-2.823-5.784-7.347-7.651-13.572l9.566-2.684c1.625,4.38,3.457,7.461,5.498,9.242
				c2.122,1.688,4.844,2.42,8.167,2.195c3.234-0.218,5.868-1.445,7.903-3.679c2.007-2.203,2.901-4.937,2.68-8.2
				c-0.197-2.911-1.252-5.188-3.164-6.831c-0.969-0.791-2.379-1.662-4.231-2.616c-1.852-0.953-4.202-1.968-7.051-3.046
				c-5.877-2.173-9.785-4.272-11.723-6.297c-3.069-3.012-4.753-6.753-5.055-11.222c-0.143-2.117,0.061-4.109,0.615-5.978
				c0.553-1.868,1.419-3.588,2.598-5.16c1.179-1.571,2.672-2.964,4.481-4.179c1.808-1.214,3.882-2.212,6.222-2.99l-0.584-8.644
				L813.281,400.393z"/>
		</g>
	</g>
	<g>
		<polygon style="fill:#DD957C;" points="902.21,449.071 893.937,451.778 887.146,448.2 885.657,449.254 886.881,451.14 
			880.394,449.783 875.637,452.294 874.674,459.386 878.395,465.776 885.538,465.986 893.017,461.95 904.502,458.735 		"/>
		<path style="fill:#7FC5A3;" d="M924.059,440.138c3.487-2.357,5.884-5.707,6.195-10.643c0.286-4.548-0.78-9.055-1.565-13.543
			c-2.491-14.249-2.162-28.985,0.962-43.108c3.109-14.053,19.504,3.617,21.543,9.957c2.26,7.027,1.624,14.679,2.174,21.944
			c0.739,9.755,1.09,19.54,1.05,29.322c-0.025,6.19,1.499,20.81-5.018,24.351c-1.762,0.958-3.785,1.294-5.765,1.615
			c-3.11,0.505-40.242,5.188-40.824,3.353l-5.13-16.183C905.407,445.621,916.979,444.924,924.059,440.138z"/>
	</g>
	<g>
		<g>
			<g>
				<path style="fill:#3B455A;" d="M957.162,474.237c-0.536,0.288-1.233,0.023-1.557-0.592l-14.75-28.041
					c-4.929-9.37-15.588-13.424-23.761-9.037c-8.173,4.387-10.812,15.579-5.883,24.949l14.75,28.041
					c0.323,0.615,0.151,1.347-0.385,1.635c-0.536,0.288-1.233,0.023-1.557-0.592l-14.75-28.041
					c-5.575-10.597-2.59-23.256,6.654-28.218c9.244-4.962,21.3-0.376,26.874,10.221l14.75,28.041
					C957.871,473.217,957.698,473.949,957.162,474.237z"/>
			</g>
			<polygon style="fill:#CCD2D9;" points="1017.625,546.808 1010.843,543.374 969.831,450.954 974.004,451.569 979.587,450.13 			
				"/>
			<polygon style="fill:#BDC3C9;" points="974.004,451.569 1008.164,523.825 979.587,450.13 			"/>
			<polygon style="fill:#B9BEC4;" points="894.793,491.23 969.888,450.924 1012.715,542.629 935.031,582.765 			"/>
			<polygon style="fill:#CCD2D9;" points="1033.576,537.7 955.549,582.954 907.228,489.131 979.64,450.141 			"/>
			<polygon style="fill:#D5C477;" points="955.549,582.954 935.031,582.765 894.793,491.23 901.541,489.425 907.228,489.131 			"/>
			<polygon style="fill:#C4B56B;" points="901.541,489.425 941.661,571.719 955.608,582.923 907.187,488.949 			"/>
			<polygon style="fill:#B9AB65;" points="935.035,582.794 941.661,571.719 955.608,582.923 			"/>
			<g>
				<path style="fill:#4E4E4E;" d="M933.677,489.827c-0.647-1.23-2.041-1.76-3.114-1.184c-1.073,0.576-1.418,2.039-0.771,3.269
					c0.647,1.23,2.041,1.76,3.113,1.184C933.979,492.521,934.324,491.057,933.677,489.827z"/>
				<g>
					<path style="fill:#E1DEBA;" d="M932.845,490.274c-0.37-0.703-1.166-1.006-1.779-0.677c-0.613,0.329-0.81,1.165-0.44,1.868
						c0.37,0.703,1.166,1.006,1.779,0.677C933.017,491.813,933.214,490.977,932.845,490.274z"/>
				</g>
			</g>
			<g>
				<path style="fill:#1A3151;" d="M965.281,472.864c-0.647-1.23-2.041-1.76-3.113-1.184c-1.073,0.576-1.418,2.039-0.771,3.269
					c0.647,1.23,2.041,1.76,3.113,1.184C965.583,475.557,965.928,474.094,965.281,472.864z"/>
				<g>
					<path style="fill:#E1DEBA;" d="M964.449,473.311c-0.37-0.703-1.166-1.006-1.779-0.677c-0.613,0.329-0.81,1.165-0.44,1.868
						c0.37,0.703,1.166,1.006,1.779,0.677C964.622,474.85,964.819,474.013,964.449,473.311z"/>
				</g>
			</g>
			<g>
				<path style="fill:#3B455A;" d="M963.809,474.822c-0.536,0.288-1.233,0.023-1.557-0.592l-14.75-28.041
					c-4.929-9.37-15.588-13.424-23.761-9.037c-8.173,4.387-10.812,15.579-5.883,24.949l14.75,28.041
					c0.323,0.615,0.151,1.347-0.385,1.634c-0.536,0.288-1.233,0.023-1.557-0.592l-14.75-28.041
					c-5.575-10.598-2.59-23.256,6.654-28.218c9.244-4.962,21.3-0.376,26.875,10.221l14.75,28.041
					C964.518,473.802,964.346,474.534,963.809,474.822z"/>
			</g>
		</g>
	</g>
	<g>
		<g>
			<g>
				<path style="fill:#3B455A;" d="M961.984,489.895c-0.83,0.173-1.642-0.363-1.815-1.198l-7.873-38.077
					c-2.631-12.723-15.06-20.929-27.706-18.291c-12.647,2.638-20.795,15.136-18.164,27.859l7.873,38.077
					c0.173,0.835-0.36,1.652-1.19,1.825c-0.83,0.173-1.643-0.363-1.815-1.198l-7.873-38.077
					c-2.975-14.391,6.241-28.526,20.545-31.509c14.304-2.984,28.361,6.297,31.337,20.687l7.873,38.077
					C963.347,488.904,962.814,489.721,961.984,489.895z"/>
			</g>
			<polygon style="fill:#CCD2D9;" points="1011.873,595.497 1004.32,589.259 988.442,466.169 993.712,468.223 1001.703,468.277 			
				"/>
			<polygon style="fill:#BDC3C9;" points="993.712,468.223 1008.902,565.121 1001.703,468.277 			"/>
			<polygon style="fill:#B9BEC4;" points="872.33,490.389 988.529,466.151 1007.109,588.964 887.552,612.18 			"/>
			<polygon style="fill:#CCD2D9;" points="1036.782,589.698 914.643,618.902 889.669,491.825 1001.769,468.306 			"/>
			<polygon style="fill:#C5CAD1;" points="914.643,618.902 887.552,612.18 872.33,490.389 882.016,490.376 889.669,491.825 			"/>
			<polygon style="fill:#C1C6CC;" points="882.016,490.376 900.924,601.12 914.733,618.883 889.69,491.596 			"/>
			<polygon style="fill:#B9BEC4;" points="887.544,612.216 900.924,601.12 914.733,618.883 			"/>
			<g>
				<path style="fill:#3B455A;" d="M924.403,501.031c-0.345-1.67-1.971-2.743-3.63-2.397c-1.66,0.346-2.725,1.981-2.38,3.651
					c0.345,1.67,1.971,2.743,3.63,2.397C923.683,504.335,924.748,502.701,924.403,501.031z"/>
				<g>
					<path style="fill:#B9BEC4;" d="M923.115,501.3c-0.197-0.954-1.126-1.567-2.075-1.37c-0.948,0.198-1.557,1.132-1.36,2.086
						c0.197,0.954,1.126,1.567,2.075,1.37C922.703,503.188,923.312,502.254,923.115,501.3z"/>
				</g>
			</g>
			<g>
				<path style="fill:#3B455A;" d="M973.307,490.83c-0.345-1.67-1.971-2.743-3.63-2.397c-1.66,0.346-2.725,1.981-2.38,3.651
					c0.345,1.67,1.971,2.743,3.63,2.396C972.587,494.134,973.652,492.5,973.307,490.83z"/>
				<g>
					<path style="fill:#B9BEC4;" d="M972.019,491.099c-0.197-0.954-1.126-1.567-2.074-1.37c-0.949,0.198-1.557,1.132-1.36,2.086
						c0.197,0.954,1.126,1.567,2.075,1.369C971.607,492.987,972.216,492.053,972.019,491.099z"/>
				</g>
			</g>
			<g>
				<path style="fill:#3B455A;" d="M970.544,492.697c-0.83,0.173-1.643-0.363-1.815-1.198l-7.873-38.077
					c-2.631-12.723-15.06-20.929-27.706-18.291c-12.647,2.638-20.795,15.136-18.164,27.859l7.873,38.077
					c0.173,0.835-0.36,1.652-1.19,1.825c-0.83,0.173-1.643-0.363-1.815-1.198l-7.873-38.077
					c-2.975-14.391,6.241-28.526,20.545-31.509c14.304-2.984,28.361,6.297,31.337,20.687l7.873,38.077
					C971.906,491.706,971.373,492.523,970.544,492.697z"/>
			</g>
		</g>
	</g>
	<path style="fill:#7FC5A3;" d="M944.73,453.008c-1.107-1.397-2.301-2.747-3.467-4.12c-0.502-0.592-0.742-1.235-0.787-1.867
		c-0.684-0.395-1.368-0.792-2.049-1.193c-4.099-2.411-7.896-5.389-12.163-7.493c-0.671,0.657-1.404,1.261-2.206,1.803
		c-7.08,4.786-18.652,5.483-26.377,7.066l5.129,16.183c0.582,1.835,37.715-2.848,40.824-3.353c1.337-0.217,2.691-0.445,3.974-0.862
		C946.535,457.175,945.536,455.148,944.73,453.008z"/>
	<g>
		<g>
			<g>
				<path style="fill:#3B455A;" d="M594.104,387.591c-0.745-0.016-1.355-0.629-1.361-1.369l-0.287-33.735
					c-0.096-11.273-9.415-20.647-20.775-20.897c-11.36-0.25-20.524,8.719-20.428,19.991l0.287,33.735
					c0.006,0.74-0.593,1.326-1.338,1.31c-0.745-0.016-1.355-0.629-1.361-1.369l-0.287-33.735
					c-0.108-12.75,10.257-22.893,23.105-22.611c12.848,0.282,23.389,10.885,23.498,23.635l0.287,33.735
					C595.448,387.021,594.849,387.607,594.104,387.591z"/>
			</g>
			<polygon style="fill:#CCD2D9;" points="619.099,486.654 613.649,479.9 620.98,372.72 625.174,375.49 632.058,377.102 			"/>
			<polygon style="fill:#BDC3C9;" points="625.174,375.49 621.724,460.39 632.058,377.102 			"/>
			<polygon style="fill:#B9BEC4;" points="516.681,370.429 621.058,372.722 616.105,480.197 509.007,476.381 			"/>
			<polygon style="fill:#CCD2D9;" points="641.576,486.635 531.227,487.376 531.393,375.043 632.111,377.14 			"/>
			<polygon style="fill:#C5CAD1;" points="531.227,487.376 509.007,476.381 516.681,370.429 525.04,372.317 531.393,375.043 			"/>
			<polygon style="fill:#C1C6CC;" points="525.04,372.317 522.432,469.652 531.309,487.378 531.45,374.854 			"/>
			<polygon style="fill:#B9BEC4;" points="508.994,476.41 522.432,469.652 531.309,487.378 			"/>
			<g>
				<path style="fill:#3B455A;" d="M559.783,389.637c-0.013-1.479-1.231-2.705-2.722-2.738c-1.491-0.033-2.689,1.14-2.677,2.62
					c0.013,1.479,1.231,2.705,2.722,2.738C558.597,392.289,559.795,391.116,559.783,389.637z"/>
				<g>
					<path style="fill:#B9BEC4;" d="M558.626,389.612c-0.007-0.845-0.704-1.546-1.556-1.565c-0.852-0.019-1.537,0.652-1.53,1.497
						c0.007,0.845,0.704,1.546,1.556,1.565C557.948,391.127,558.633,390.457,558.626,389.612z"/>
				</g>
			</g>
			<g>
				<path style="fill:#3B455A;" d="M603.711,390.602c-0.013-1.479-1.231-2.705-2.722-2.738c-1.491-0.033-2.689,1.14-2.677,2.62
					c0.013,1.479,1.231,2.705,2.722,2.738C602.525,393.254,603.723,392.081,603.711,390.602z"/>
				<g>
					<path style="fill:#B9BEC4;" d="M602.554,390.576c-0.007-0.845-0.704-1.546-1.555-1.565c-0.852-0.019-1.537,0.652-1.53,1.497
						c0.007,0.845,0.704,1.546,1.556,1.565C601.876,392.092,602.561,391.422,602.554,390.576z"/>
				</g>
			</g>
			<g>
				<path style="fill:#3B455A;" d="M601.008,391.638c-0.745-0.016-1.355-0.629-1.361-1.369l-0.287-33.735
					c-0.096-11.273-9.416-20.647-20.775-20.896c-11.36-0.25-20.524,8.719-20.428,19.991l0.287,33.735
					c0.006,0.74-0.593,1.326-1.339,1.31c-0.745-0.016-1.355-0.629-1.361-1.369l-0.287-33.735
					c-0.108-12.75,10.257-22.893,23.105-22.611c12.849,0.282,23.389,10.885,23.498,23.635l0.287,33.735
					C602.353,391.068,601.753,391.654,601.008,391.638z"/>
			</g>
		</g>
	</g>
	<g>
		<g>
			<g>
				<path style="fill:#3B455A;" d="M186.653,455.619c-0.722-0.185-1.168-0.964-0.996-1.739l7.868-35.385
					c2.629-11.824-4.188-23.734-15.197-26.548c-11.009-2.815-22.104,4.515-24.734,16.339l-7.868,35.385
					c-0.173,0.776-0.898,1.255-1.62,1.071c-0.722-0.185-1.168-0.964-0.996-1.739l7.868-35.385
					c2.974-13.373,15.523-21.664,27.975-18.48c12.451,3.184,20.162,16.654,17.188,30.027l-7.868,35.385
					C188.101,455.324,187.375,455.804,186.653,455.619z"/>
			</g>
			<polygon style="fill:#CCD2D9;" points="187.083,564.956 183.404,556.659 216.433,446.09 219.851,449.934 226.169,453.169 			"/>
			<polygon style="fill:#BDC3C9;" points="219.851,449.934 195.985,538.048 226.169,453.169 			"/>
			<polygon style="fill:#B9BEC4;" points="115.357,420.248 216.508,446.11 185.726,557.523 82.289,529.454 			"/>
			<polygon style="fill:#CCD2D9;" points="208.99,569.989 101.286,545.961 128.577,428.386 226.212,453.22 			"/>
			<polygon style="fill:#C5CAD1;" points="101.286,545.961 82.289,529.454 115.357,420.248 123.045,424.104 128.577,428.386 			"/>
			<polygon style="fill:#C1C6CC;" points="123.045,424.104 96.995,525.427 101.365,545.982 128.679,428.2 			"/>
			<polygon style="fill:#B9BEC4;" points="82.27,529.482 96.995,525.427 101.365,545.982 			"/>
			<g>
				<path style="fill:#3B455A;" d="M152.716,450.047c0.345-1.552-0.546-3.109-1.991-3.479c-1.445-0.369-2.896,0.589-3.241,2.141
					c-0.345,1.552,0.547,3.109,1.991,3.479C150.92,452.557,152.371,451.599,152.716,450.047z"/>
				<g>
					<path style="fill:#B9BEC4;" d="M151.595,449.76c0.197-0.887-0.312-1.777-1.138-1.988c-0.826-0.211-1.655,0.337-1.852,1.223
						c-0.197,0.887,0.312,1.777,1.138,1.988C150.569,451.195,151.398,450.647,151.595,449.76z"/>
				</g>
			</g>
			<g>
				<path style="fill:#3B455A;" d="M195.287,460.931c0.345-1.552-0.546-3.109-1.991-3.479c-1.445-0.369-2.896,0.589-3.241,2.141
					c-0.345,1.552,0.546,3.109,1.991,3.478C193.491,463.441,194.942,462.483,195.287,460.931z"/>
				<g>
					<path style="fill:#B9BEC4;" d="M194.166,460.644c0.197-0.887-0.312-1.777-1.138-1.988c-0.826-0.211-1.655,0.337-1.852,1.223
						c-0.197,0.887,0.312,1.777,1.138,1.988C193.14,462.079,193.969,461.531,194.166,460.644z"/>
				</g>
			</g>
			<g>
				<path style="fill:#3B455A;" d="M192.403,461.408c-0.722-0.185-1.168-0.963-0.996-1.739l7.868-35.385
					c2.629-11.824-4.188-23.734-15.197-26.548c-11.009-2.815-22.105,4.515-24.734,16.339l-7.868,35.385
					c-0.173,0.776-0.898,1.255-1.621,1.07c-0.722-0.185-1.168-0.964-0.996-1.739l7.868-35.385
					c2.974-13.373,15.523-21.664,27.975-18.48c12.451,3.184,20.162,16.654,17.188,30.027l-7.868,35.385
					C193.851,461.114,193.126,461.593,192.403,461.408z"/>
			</g>
		</g>
	</g>
	<g>
		<path style="fill:#3B455A;" d="M173.105,415.268c3.387-5.186,6.978-10.192,9.737-15.757c0.167-0.335,0.371-0.595,0.59-0.819
			l-18.597-60.44l-23.304,4.183l14.938,75.887l9.906,8.94C168.441,423.166,170.584,419.128,173.105,415.268z"/>
	</g>
	<g>
		<g>
			<path style="fill:#8EC3CB;" d="M299.876,293.016l-180.273,45.935c-3.736,0.952-7.577-1.346-8.536-5.108L82.314,221.004
				c-0.958-3.761,1.314-7.618,5.051-8.57l180.273-45.935c3.736-0.952,7.577,1.346,8.536,5.108l28.752,112.839
				C305.885,288.208,303.612,292.064,299.876,293.016z"/>
		</g>
		<g>
			<path style="fill:#BABCBE;" d="M140.948,272.24l-32.091,8.177c-0.5,0.128-1.014-0.178-1.142-0.678l-6.008-23.58
				c-0.128-0.501,0.178-1.014,0.678-1.142l32.091-8.177c0.501-0.128,1.015,0.178,1.142,0.678l6.009,23.58
				C141.753,271.598,141.448,272.112,140.948,272.24z"/>
		</g>
		<g style="opacity:0.2;">
			<path style="fill:#999999;" d="M140.696,267.448l-2.645-10.379c-6.243,10.034-20.385,17.763-29.215,21.835
				c1.049,0.664,2.352,0.918,3.639,0.59l24.854-6.333C139.82,272.527,141.335,269.956,140.696,267.448z"/>
		</g>
		<g>
			<g>
				
					<rect x="111.106" y="284.042" transform="matrix(0.969 -0.2469 0.2469 0.969 -67.6659 41.4241)" style="fill:#FFFFFF;" width="40.456" height="12.938"/>
			</g>
			<g>
				
					<rect x="154.835" y="272.899" transform="matrix(0.969 -0.2469 0.2469 0.969 -63.5601 51.876)" style="fill:#FFFFFF;" width="40.456" height="12.938"/>
			</g>
			<g>
				
					<rect x="198.564" y="261.757" transform="matrix(0.969 -0.2469 0.2469 0.969 -59.4549 62.3283)" style="fill:#FFFFFF;" width="40.456" height="12.938"/>
			</g>
			<g>
				
					<rect x="242.292" y="250.615" transform="matrix(0.969 -0.2469 0.2469 0.969 -55.3496 72.7807)" style="fill:#FFFFFF;" width="40.456" height="12.938"/>
			</g>
		</g>
		<g>
			<path style="fill:#F3F3F3;" d="M109.6,238.119c-0.883,1.363-2.01,2.204-3.443,2.569c-2.962,0.755-5.989-1.058-6.749-4.041
				c-0.76-2.983,1.031-6.023,3.992-6.778c1.444-0.368,2.874-0.165,4.249,0.605l0.287,0.16l1.047-1.657l-0.291-0.185
				c-1.648-1.049-3.811-1.375-5.788-0.871c-4.031,1.027-6.47,5.163-5.436,9.22c1.034,4.057,5.154,6.522,9.185,5.495
				c1.976-0.504,3.725-1.833,4.678-3.558l0.17-0.308l-1.729-0.917L109.6,238.119z"/>
			<path style="fill:#F3F3F3;" d="M119.378,228.335c-0.583-2.287-2.905-3.676-5.178-3.097l-4.412,1.124l3.656,14.349l1.94-0.494
				l-1.547-6.073l2.101-0.535l4.555,5.306l2.181-0.556l-4.825-5.594C119.172,231.745,119.797,229.98,119.378,228.335z
				 M117.439,228.829c0.307,1.203-0.423,2.431-1.626,2.737l-2.473,0.63l-1.116-4.38l2.472-0.63
				C115.879,226.885,117.135,227.637,117.439,228.829z"/>
			<polygon style="fill:#F3F3F3;" points="123.425,238.168 131.017,236.234 130.52,234.286 124.923,235.712 123.56,230.365 
				128.452,229.119 127.955,227.171 123.064,228.418 122.259,225.259 127.857,223.833 127.36,221.884 119.769,223.819 			"/>
			<path style="fill:#F3F3F3;" d="M132.423,220.594l-3.379,0.861l3.656,14.349l3.379-0.861c4.463-1.137,6.625-4.703,5.509-9.083
				C140.484,221.525,136.886,219.457,132.423,220.594z M135.583,232.996l-1.44,0.367l-2.664-10.453l1.44-0.367
				c3.436-0.876,5.889,0.514,6.73,3.812C140.489,229.651,138.969,232.133,135.583,232.996z"/>
			
				<rect x="143.068" y="217.864" transform="matrix(0.969 -0.2469 0.2469 0.969 -51.1615 42.5482)" style="fill:#F3F3F3;" width="2.002" height="14.808"/>
			<polygon style="fill:#F3F3F3;" points="144.485,219.596 148.054,218.686 151.214,231.088 153.153,230.593 149.993,218.192 
				153.544,217.287 153.047,215.339 143.989,217.647 			"/>
			<path style="fill:#F3F3F3;" d="M172.667,221.827l-0.173,0.266c-0.883,1.363-2.009,2.204-3.443,2.569
				c-2.962,0.755-5.989-1.058-6.749-4.04c-0.76-2.983,1.031-6.023,3.993-6.778c1.445-0.368,2.874-0.165,4.249,0.606l0.286,0.16
				l1.047-1.657l-0.291-0.185c-1.648-1.049-3.812-1.375-5.788-0.871c-4.031,1.027-6.47,5.163-5.436,9.22
				c1.034,4.057,5.154,6.522,9.185,5.494c1.976-0.503,3.724-1.833,4.678-3.558l0.17-0.308L172.667,221.827z"/>
			<path style="fill:#F3F3F3;" d="M178.06,208.966l-3.186,16.093l2.157-0.549l0.938-4.803l6.079-1.549l3.139,3.764l2.138-0.545
				l-10.48-12.611L178.06,208.966z M182.617,216.447l-4.209,1.073l0.984-4.965L182.617,216.447z"/>
			<path style="fill:#F3F3F3;" d="M196.022,208.805c-0.583-2.287-2.906-3.676-5.178-3.097l-4.412,1.124l3.656,14.349l1.939-0.494
				l-1.547-6.073l2.101-0.535l4.555,5.307l2.181-0.556l-4.825-5.594C195.816,212.215,196.441,210.45,196.022,208.805z
				 M194.082,209.299c0.307,1.203-0.423,2.431-1.626,2.737l-2.473,0.63l-1.116-4.38l2.473-0.63
				C192.523,207.355,193.779,208.108,194.082,209.299z"/>
			<path style="fill:#F3F3F3;" d="M199.792,203.428l-3.38,0.861l3.656,14.349l3.38-0.861c4.463-1.137,6.625-4.703,5.509-9.083
				C207.852,204.359,204.255,202.291,199.792,203.428z M207.018,209.189c0.84,3.296-0.68,5.779-4.066,6.641l-1.44,0.367
				l-2.664-10.453l1.44-0.367C203.725,204.501,206.178,205.891,207.018,209.189z"/>
		</g>
		<g>
			
				<rect x="202.221" y="277.791" transform="matrix(0.969 -0.2469 0.2469 0.969 -61.4892 69.1601)" style="fill:#FFFFFF;" width="85.582" height="3.921"/>
		</g>
	</g>
	<g>
		<g>
			<g>
				<path style="fill:#3B455A;" d="M209.619,668.029c-0.811,0.011-1.48-0.518-1.493-1.182l-0.617-30.279
					c-0.206-10.118-10.431-18.213-22.793-18.044c-12.362,0.168-22.252,8.537-22.045,18.655l0.617,30.279
					c0.014,0.664-0.633,1.211-1.444,1.222c-0.811,0.011-1.48-0.518-1.493-1.182l-0.617-30.279
					c-0.233-11.444,10.952-20.909,24.934-21.099c13.982-0.19,25.547,8.965,25.78,20.409l0.617,30.279
					C211.077,667.471,210.43,668.018,209.619,668.029z"/>
			</g>
			<polygon style="fill:#CCD2D9;" points="237.711,756.109 231.721,750.233 238.726,653.749 243.315,656.092 250.82,657.301 			"/>
			<polygon style="fill:#B9BEC4;" points="243.315,656.092 240.33,732.438 250.82,657.301 			"/>
			<polygon style="fill:#B9BEC4;" points="125.226,655.294 238.811,653.748 234.395,750.415 117.836,750.688 			"/>
			<polygon style="fill:#CCD2D9;" points="262.167,755.316 142.112,759.792 141.275,658.929 250.877,657.333 			"/>
			<polygon style="fill:#C5CAD1;" points="142.112,759.792 117.836,750.688 125.226,655.294 134.337,656.701 141.275,658.929 			"/>
			<polygon style="fill:#C1C6CC;" points="134.337,656.701 132.381,744.183 142.2,759.791 141.335,658.757 			"/>
			<polygon style="fill:#B9BEC4;" points="117.822,750.714 132.381,744.183 142.2,759.791 			"/>
			<g>
				<path style="fill:#3B455A;" d="M172.296,671.051c-0.027-1.328-1.364-2.386-2.987-2.365c-1.622,0.022-2.916,1.117-2.889,2.445
					c0.027,1.328,1.364,2.386,2.986,2.364C171.029,673.474,172.323,672.379,172.296,671.051z"/>
				<g>
					<path style="fill:#B9BEC4;" d="M171.037,671.069c-0.016-0.759-0.78-1.364-1.707-1.351c-0.927,0.013-1.666,0.638-1.651,1.397
						c0.016,0.759,0.78,1.364,1.707,1.351C170.313,672.453,171.052,671.827,171.037,671.069z"/>
				</g>
			</g>
			<g>
				<path style="fill:#3B455A;" d="M220.099,670.401c-0.027-1.328-1.364-2.387-2.987-2.364c-1.622,0.022-2.916,1.116-2.889,2.444
					c0.027,1.328,1.364,2.386,2.987,2.364C218.833,672.823,220.126,671.729,220.099,670.401z"/>
				<g>
					<path style="fill:#B9BEC4;" d="M218.84,670.418c-0.015-0.759-0.78-1.364-1.707-1.351c-0.927,0.013-1.666,0.638-1.651,1.397
						c0.016,0.759,0.78,1.364,1.707,1.351C218.117,671.802,218.856,671.177,218.84,670.418z"/>
				</g>
			</g>
			<g>
				<path style="fill:#3B455A;" d="M217.168,671.424c-0.811,0.011-1.48-0.518-1.493-1.182l-0.617-30.279
					c-0.206-10.118-10.431-18.213-22.793-18.044c-12.362,0.168-22.251,8.537-22.045,18.655l0.617,30.279
					c0.014,0.664-0.633,1.211-1.444,1.222c-0.811,0.011-1.48-0.518-1.493-1.182l-0.617-30.279
					c-0.233-11.444,10.952-20.909,24.934-21.099c13.982-0.19,25.547,8.965,25.78,20.409l0.617,30.279
					C218.626,670.866,217.979,671.413,217.168,671.424z"/>
			</g>
		</g>
	</g>
	<g>
		<g>
			<g>
				<path style="fill:#3B455A;" d="M890.876,163.041c-0.811,0.011-1.48-0.518-1.493-1.182l-0.617-30.279
					c-0.206-10.118-10.431-18.213-22.793-18.044c-12.362,0.168-22.252,8.537-22.045,18.655l0.617,30.279
					c0.013,0.664-0.633,1.211-1.444,1.222c-0.811,0.011-1.48-0.518-1.493-1.182l-0.617-30.279
					c-0.233-11.444,10.952-20.909,24.934-21.099c13.982-0.19,25.547,8.965,25.78,20.409l0.617,30.279
					C892.334,162.483,891.687,163.03,890.876,163.041z"/>
			</g>
			<polygon style="fill:#CCD2D9;" points="918.968,251.122 912.978,245.245 919.983,148.761 924.572,151.104 932.077,152.313 			"/>
			<polygon style="fill:#B9BEC4;" points="924.572,151.104 921.587,227.45 932.077,152.313 			"/>
			<polygon style="fill:#B9BEC4;" points="806.484,150.306 920.068,148.76 915.653,245.427 799.093,245.7 			"/>
			<polygon style="fill:#CCD2D9;" points="943.424,250.328 823.369,254.804 822.532,153.941 932.134,152.345 			"/>
			<polygon style="fill:#C5CAD1;" points="823.369,254.804 799.093,245.7 806.484,150.306 815.595,151.713 822.532,153.941 			"/>
			<polygon style="fill:#C1C6CC;" points="815.595,151.713 813.638,239.195 823.457,254.803 822.593,153.769 			"/>
			<polygon style="fill:#B9BEC4;" points="799.079,245.726 813.638,239.195 823.457,254.803 			"/>
			<g>
				<path style="fill:#3B455A;" d="M853.553,166.063c-0.027-1.328-1.364-2.387-2.987-2.365c-1.622,0.022-2.916,1.117-2.888,2.445
					c0.027,1.328,1.364,2.386,2.987,2.364C852.287,168.486,853.58,167.391,853.553,166.063z"/>
				<g>
					<path style="fill:#B9BEC4;" d="M852.294,166.081c-0.016-0.759-0.78-1.364-1.707-1.351c-0.927,0.013-1.666,0.638-1.651,1.397
						c0.016,0.759,0.78,1.364,1.707,1.351C851.57,167.465,852.309,166.839,852.294,166.081z"/>
				</g>
			</g>
			<g>
				<path style="fill:#3B455A;" d="M901.356,165.413c-0.027-1.328-1.364-2.387-2.987-2.365c-1.622,0.022-2.916,1.117-2.889,2.444
					c0.027,1.328,1.364,2.386,2.987,2.364C900.09,167.835,901.383,166.741,901.356,165.413z"/>
				<g>
					<path style="fill:#B9BEC4;" d="M900.097,165.43c-0.016-0.759-0.78-1.364-1.707-1.351c-0.927,0.013-1.666,0.638-1.651,1.397
						c0.015,0.759,0.78,1.364,1.707,1.351C899.374,166.814,900.113,166.189,900.097,165.43z"/>
				</g>
			</g>
			<g>
				<path style="fill:#3B455A;" d="M898.425,166.436c-0.811,0.011-1.48-0.518-1.493-1.182l-0.617-30.279
					c-0.206-10.118-10.431-18.213-22.793-18.044c-12.362,0.168-22.251,8.537-22.045,18.655l0.617,30.279
					c0.014,0.664-0.633,1.211-1.444,1.222c-0.811,0.011-1.48-0.518-1.493-1.182l-0.617-30.279
					c-0.233-11.444,10.952-20.909,24.934-21.099c13.982-0.19,25.547,8.965,25.78,20.409l0.617,30.279
					C899.883,165.878,899.236,166.425,898.425,166.436z"/>
			</g>
		</g>
	</g>
</g>
</svg>
