<?xml version="1.0" encoding="utf-8"?>
<!-- Generator: Adobe Illustrator 27.5.0, SVG Export Plug-In . SVG Version: 6.00 Build 0)  -->
<svg version="1.1" xmlns="http://www.w3.org/2000/svg" xmlns:xlink="http://www.w3.org/1999/xlink" x="0px" y="0px"
	 viewBox="0 0 500 500" style="enable-background:new 0 0 500 500;" xml:space="preserve">
<g id="BACKGROUND">
	<rect style="fill:#F9F9F9;" width="500" height="500"/>
</g>
<g id="OBJECTS">
	<g>
		<g>
			<path style="fill:#F08A64;" d="M448.235,393.862c0-3.818-27.776-6.913-62.039-6.913c-34.264,0-62.04,3.095-62.04,6.913v24.919
				c0,3.818,27.776,6.913,62.04,6.913c34.263,0,62.039-3.095,62.039-6.913V393.862z"/>
			<g>
				<path style="fill:#F7CA72;" d="M333.104,422.359c0.62,0.114,1.276,0.225,1.953,0.335v-32.746
					c-0.677,0.11-1.333,0.221-1.953,0.335V422.359z"/>
				<path style="fill:#F7CA72;" d="M343.844,423.831c0.638,0.066,1.29,0.131,1.953,0.195v-35.408
					c-0.663,0.063-1.315,0.128-1.953,0.195V423.831z"/>
				<path style="fill:#F7CA72;" d="M354.585,424.729c0.645,0.043,1.293,0.085,1.953,0.125v-37.066
					c-0.66,0.04-1.307,0.082-1.953,0.125V424.729z"/>
				<path style="fill:#F7CA72;" d="M365.325,425.292c0.646,0.026,1.297,0.05,1.953,0.074v-38.089
					c-0.656,0.023-1.307,0.048-1.953,0.074V425.292z"/>
				<path style="fill:#F7CA72;" d="M376.065,425.601c0.647,0.012,1.299,0.022,1.953,0.031V387.01
					c-0.654,0.01-1.306,0.02-1.953,0.032V425.601z"/>
				<path style="fill:#F7CA72;" d="M386.805,425.693c0.653-0.001,1.304-0.003,1.953-0.005v-38.732
					c-0.648-0.003-1.299-0.005-1.953-0.005V425.693z"/>
				<path style="fill:#F7CA72;" d="M397.545,425.577c0.654-0.014,1.306-0.028,1.953-0.044v-38.424
					c-0.647-0.016-1.298-0.03-1.953-0.044V425.577z"/>
				<path style="fill:#F7CA72;" d="M408.285,425.242c0.654-0.028,1.309-0.056,1.953-0.086v-37.669
					c-0.644-0.03-1.298-0.058-1.953-0.086V425.242z"/>
			</g>
			<path style="fill:#F7CA72;" d="M448.235,393.862c0-3.818-27.776-6.913-62.039-6.913c-34.264,0-62.04,3.095-62.04,6.913
				c0,0.281,0,1.38,0,1.661c0,3.818,27.776,6.913,62.04,6.913c34.263,0,62.039-3.095,62.039-6.913
				C448.235,395.242,448.235,394.143,448.235,393.862z"/>
			<ellipse style="fill:#F9F9F9;" cx="386.195" cy="393.862" rx="62.04" ry="6.913"/>
			<ellipse style="fill:#F7CA72;" cx="386.195" cy="393.181" rx="46.037" ry="4.449"/>
		</g>
		<g>
			<path style="fill:#F08A64;" d="M460.561,361.297c0-3.818-27.776-6.914-62.039-6.914c-34.264,0-62.04,3.095-62.04,6.914v24.919
				c0,3.818,27.776,6.914,62.04,6.914c34.263,0,62.039-3.095,62.039-6.914V361.297z"/>
			<g>
				<path style="fill:#F7CA72;" d="M345.43,389.795c0.62,0.114,1.276,0.225,1.953,0.335v-32.746
					c-0.677,0.11-1.333,0.221-1.953,0.335V389.795z"/>
				<path style="fill:#F7CA72;" d="M356.17,391.266c0.638,0.066,1.29,0.131,1.953,0.195v-35.408
					c-0.663,0.064-1.315,0.128-1.953,0.195V391.266z"/>
				<path style="fill:#F7CA72;" d="M366.91,392.165c0.645,0.043,1.293,0.085,1.953,0.125v-37.066
					c-0.66,0.04-1.307,0.082-1.953,0.125V392.165z"/>
				<path style="fill:#F7CA72;" d="M377.65,392.728c0.646,0.026,1.297,0.05,1.953,0.074v-38.089
					c-0.656,0.023-1.307,0.048-1.953,0.074V392.728z"/>
				<path style="fill:#F7CA72;" d="M388.391,393.037c0.647,0.012,1.299,0.022,1.953,0.032v-38.623
					c-0.654,0.01-1.306,0.02-1.953,0.032V393.037z"/>
				<path style="fill:#F7CA72;" d="M399.131,393.128c0.654-0.001,1.304-0.003,1.953-0.005v-38.732
					c-0.648-0.003-1.299-0.005-1.953-0.005V393.128z"/>
				<path style="fill:#F7CA72;" d="M409.871,393.012c0.654-0.014,1.306-0.028,1.953-0.043v-38.424
					c-0.647-0.016-1.298-0.03-1.953-0.043V393.012z"/>
				<path style="fill:#F7CA72;" d="M420.611,392.677c0.654-0.028,1.309-0.056,1.953-0.086v-37.669
					c-0.644-0.03-1.298-0.058-1.953-0.086V392.677z"/>
			</g>
			<path style="fill:#F7CA72;" d="M460.561,361.297c0-3.818-27.776-6.914-62.039-6.914c-34.264,0-62.04,3.095-62.04,6.914
				c0,0.281,0,1.38,0,1.661c0,3.818,27.776,6.914,62.04,6.914c34.263,0,62.039-3.095,62.039-6.914
				C460.561,362.677,460.561,361.578,460.561,361.297z"/>
			<path style="fill:#F9F9F9;" d="M460.561,361.297c0,3.818-27.776,6.913-62.039,6.913s-62.04-3.095-62.04-6.913
				s27.776-6.914,62.04-6.914S460.561,357.479,460.561,361.297z"/>
			<ellipse style="fill:#F7CA72;" cx="398.521" cy="360.616" rx="46.037" ry="4.449"/>
		</g>
	</g>
	<g>
		<g>
			<g>
				<path style="fill:#E8AFAF;" d="M453.555,399.267l6.167,15.889c0,0-17.181,9.952-12.514,12.825l27.873-8.239
					c1.128-0.334,1.736-1.555,1.321-2.656l-8.335-22.109L453.555,399.267z"/>
				<path style="fill:#BC445B;" d="M447.208,427.981l27.873-8.239c1.128-0.333,1.736-1.555,1.321-2.656l-0.496-1.316
					c-9.146,2.69-19.108,4.16-24.295,4.802C447.946,423.4,444.897,426.559,447.208,427.981z"/>
			</g>
			<g>
				<path style="fill:#E8AFAF;" d="M386.5,401.935l2.455,17.294c0,0-19.297,4.674-15.636,8.752h31.244l-2.929-26.046H386.5z"/>
				<path style="fill:#BC445B;" d="M373.319,427.981h31.244l-0.436-3.876c-7.475-0.565-18.779-1.468-24.079-2.136
					C375.569,423.661,371.449,425.898,373.319,427.981z"/>
			</g>
			<path style="fill:#BC445B;" d="M392.358,247.424c0,0-8.272,8.35-10.971,19.065c-2.699,10.714-10.252,111.135,5.485,144.16
				l16.51,0.83l12.507-91.941c0,0,0.812,10.221,11.26,33.147c10.448,22.926,28.305,54.865,28.305,54.865l17.116-3.714
				c0,0-16.261-84.298-15.773-104.176c0.673-27.417-12.643-47.422-12.643-47.422S404.563,244.495,392.358,247.424z"/>
			<path style="fill:#1D1B4D;" d="M392.358,247.424c0,0,13.262,12.652,54.638,9.845c-1.649-3.235-2.841-5.032-2.841-5.032
				S404.563,244.495,392.358,247.424z"/>
			<path style="fill:#1D1B4D;" d="M415.891,319.538l-3.418-26.204c0,0-3.129,26.395,1.071,43.455L415.891,319.538z"/>
		</g>
		<path style="fill:#1D1B4D;" d="M402.61,200.73c-3.594-1.445-6.461-6.377-6.364-10.191c0.091-3.572,3.425-5.138,3.684-8.061
			c0.243-2.74-2.486-4.402-2.029-7.555c0.478-3.298,3.246-7.824,5.679-10.085c2.068-1.921,5.361-2.747,8.061-2.24
			c1.47,0.276,2.331,1.554,3.664,1.891c2.943,0.746,5.838-1.423,9.327,0.293c3.679,1.81,5.25,5.046,6.34,8.83
			c1.842,6.394,4.302,8.965,10.362,12.038c4.999,2.535,19.752,4.141,19.372,11.66c-0.132,2.614-2.837,4.963-2.441,7.623
			c0.489,3.286,4.93,5.495,6.378,8.495c2.769,5.737,0.246,12.707-6.309,14.102c-5.298,1.128-10.884-1.428-16.18-0.992
			c-4.25,0.35-6.584,4.371-10.995,4.667c-5.409,0.362-12.921-3.566-17.272-6.541c-3.462-2.367-8.042-6.403-7.617-11.008
			c0.286-3.09,2.756-5.36,1.104-8.662c-0.727-1.453-2.052-2.436-3.378-3.256C403.629,201.83,404.052,201.93,402.61,200.73z"/>
		<g>
			<path style="fill:#E8AFAF;" d="M447.77,126.806c0,0-2.558-3.35-1.823-6.61c0.735-3.26,1.47-6.52,1.47-6.52
				s1.245,0.505,1.166,1.578c-0.079,1.073-0.111,4.148-0.111,4.148s5.688-8.915,7.091-9.356c1.403-0.441,0.14,2.35,0.14,2.35
				s1.749-3.034,2.608-3.014c0.859,0.02-0.459,3.101-0.459,3.101s1.005-1.132,1.453-0.801c0.449,0.331-1.954,4.404-1.954,4.404
				s1.555-1.872,2.174-1.483c0.619,0.388-2.205,5.773-3.62,7.216c-1.415,1.442-3.294,4.699-3.294,4.699L447.77,126.806z"/>
			<path style="fill:#F7CA72;" d="M458.2,173.577c3.173-24.52-4.312-48.507-4.312-48.507l-6.835,1.627
				c0,38.714-12.473,54.498-18.19,59.699c-0.363,0.33-0.69,0.692-1,1.067l-6.997,2.212l-8.393,0.971l-14.185,3.566
				c0,0-8.839,2.802-11.788,12.693c-3.173,10.645-8.714,22.448-11.397,28.489c-1.704,3.836-4.615,7.007-8.289,9.039l-27.18,10.639
				l2.331,4.953l37.456-5.767c4.127-1.49,7.594-5.457,9.882-9.2l4.031-5.811l-0.976,8.177c0,0,5.437,2.663,20.115,4.028
				c14.678,1.364,31.683,0.786,31.683,0.786l-4.414-30.314l0.083-4.055C455.023,189.285,458.2,173.577,458.2,173.577z"/>
			<g>
				<path style="fill:#E8AFAF;" d="M415.891,201.657c10.274-0.122,11.375-12.31,11.252-13.966l-6.277,1.984l-8.393,0.971
					l-5.812,1.461l0,0C406.661,192.107,405.617,201.779,415.891,201.657z"/>
				<path style="fill:#E8AFAF;" d="M420.866,179.797v12.156c0,2.007-1.626,3.633-3.633,3.633h-1.127
					c-2.007,0-3.633-1.626-3.633-3.633v-12.156H420.866z"/>
				<path style="fill:#1D1B4D;" d="M419.309,183.461c0,0-1.684,6.214-6.836,6.214v-6.214H419.309z"/>
				<path style="fill:#E8AFAF;" d="M410.121,172.937c-1.694,1.322-2.8,3.462-2.8,5.883c0,4.018,3.032,7.275,6.772,7.275
					c2.869,0,5.315-1.919,6.302-4.625c0.928-0.035,1.784-0.623,2.108-1.553C411.641,179.169,410.121,172.937,410.121,172.937z"/>
			</g>
			<path style="fill:#1D1B4D;" d="M393.823,236.318l1.831-15.744c0,0-6.102-6.468-1.831-12.115c0,0-4.455,3.131-2.685,9.091
				C392.724,222.893,393.415,224.186,393.823,236.318z"/>
		</g>
	</g>
	<g>
		<path style="fill:#3F97F7;" d="M231.209,65.704H49.986c-11.492,0-20.842,9.349-20.842,20.842v320.395
			c0,11.492,9.35,20.842,20.842,20.842h181.223c11.492,0,20.842-9.349,20.842-20.842V86.546
			C252.051,75.053,242.701,65.704,231.209,65.704z"/>
		<path style="fill:#366FD1;" d="M29.144,86.546v320.395c0,1.138,0.095,2.253,0.271,3.342h222.364
			c0.176-1.089,0.271-2.204,0.271-3.342V86.546c0-1.546-0.174-3.051-0.495-4.502H29.639C29.319,83.494,29.144,84.999,29.144,86.546z
			"/>
		<path style="fill:#F7CA72;" d="M231.209,422.572H70.827c-8.633,0-15.631-6.998-15.631-15.631V86.546
			c0-8.633,6.998-15.631,15.631-15.631h160.382c8.633,0,15.631,6.998,15.631,15.631v320.395
			C246.84,415.574,239.842,422.572,231.209,422.572z"/>
		<path style="fill:#8FBFEA;" d="M231.209,65.704H70.827c-11.492,0-20.842,9.349-20.842,20.842v320.395
			c0,11.492,9.349,20.842,20.842,20.842h160.382c11.492,0,20.842-9.349,20.842-20.842V86.546
			C252.051,75.053,242.701,65.704,231.209,65.704z M241.63,406.941c0,5.746-4.675,10.421-10.421,10.421H70.827
			c-5.746,0-10.421-4.675-10.421-10.421V86.546c0-5.746,4.675-10.421,10.421-10.421h30.692v7.966
			c0,5.755,4.665,10.421,10.421,10.421h78.156c5.755,0,10.421-4.665,10.421-10.421v-7.966h30.692
			c5.746,0,10.421,4.675,10.421,10.421V406.941z"/>
		<g>
			<g>
				<path style="fill:#F9F9F9;" d="M162.176,84.648h-31.118c-1.439,0-2.605-1.166-2.605-2.605c0-1.439,1.166-2.605,2.605-2.605
					h31.118c1.439,0,2.605,1.166,2.605,2.605C164.782,83.482,163.615,84.648,162.176,84.648z"/>
			</g>
			<g>
				<path style="fill:#F9F9F9;" d="M173.539,84.649c-0.172,0-0.339-0.016-0.51-0.052c-0.167-0.031-0.329-0.083-0.485-0.146
					c-0.156-0.068-0.307-0.146-0.448-0.24c-0.146-0.099-0.281-0.208-0.402-0.328c-0.484-0.485-0.761-1.157-0.761-1.839
					c0-0.688,0.276-1.36,0.761-1.844c0.12-0.12,0.255-0.229,0.402-0.323c0.14-0.094,0.292-0.172,0.448-0.24
					c0.156-0.063,0.318-0.115,0.485-0.146c0.849-0.172,1.745,0.104,2.35,0.709c0.125,0.12,0.235,0.255,0.328,0.396
					c0.094,0.141,0.172,0.292,0.24,0.453c0.063,0.156,0.115,0.318,0.146,0.485c0.036,0.167,0.052,0.339,0.052,0.511
					c0,0.167-0.016,0.339-0.052,0.511c-0.031,0.161-0.083,0.328-0.146,0.485c-0.068,0.156-0.146,0.307-0.24,0.448
					c-0.094,0.146-0.203,0.276-0.328,0.396C174.899,84.368,174.227,84.649,173.539,84.649z"/>
			</g>
		</g>
		<g>
			<path style="fill:#3F97F7;" d="M37.547,182.267c-2.878,0-5.21-2.333-5.21-5.21v-39.499c0-2.878,2.333-5.21,5.21-5.21
				c2.878,0,5.21,2.333,5.21,5.21v39.499C42.758,179.934,40.425,182.267,37.547,182.267z"/>
			<path style="fill:#3F97F7;" d="M37.547,219.782c-2.878,0-5.21-2.333-5.21-5.21v-18.657c0-2.878,2.333-5.21,5.21-5.21
				c2.878,0,5.21,2.333,5.21,5.21v18.657C42.758,217.449,40.425,219.782,37.547,219.782z"/>
		</g>
	</g>
	<g>
		<circle style="fill:#F9F9F9;" cx="155.158" cy="167.504" r="55.545"/>
		<path style="fill:#3F97F7;" d="M183.771,182.406c0.747,0,1.38-0.549,1.485-1.288l6.003-42.036
			c0.061-0.431-0.067-0.867-0.352-1.196c-0.285-0.328-0.699-0.517-1.134-0.517h-60.127v-4.211c0-3.085-2.41-5.663-5.488-5.872
			l-3.515-0.238c-0.814-0.058-1.543,0.569-1.598,1.396c-0.056,0.827,0.569,1.543,1.396,1.599l3.515,0.238
			c1.508,0.102,2.689,1.366,2.689,2.877v5.712v42.036v3.611c0,5.262,4.281,9.543,9.543,9.543h0.314
			c-1.247,1.473-2.003,3.374-2.003,5.451c0,4.661,3.792,8.453,8.453,8.453c4.661,0,8.452-3.792,8.452-8.453
			c0-2.077-0.756-3.978-2.003-5.451h17.114c-1.247,1.473-2.003,3.374-2.003,5.451c0,4.661,3.792,8.453,8.453,8.453
			c4.661,0,8.452-3.792,8.452-8.453c0-2.077-0.756-3.978-2.003-5.451h7.957c0.829,0,1.501-0.672,1.501-1.501
			s-0.672-1.501-1.501-1.501h-51.184c-3.607,0-6.542-2.934-6.542-6.542v-2.11H183.771z M148.404,199.51
			c0,3.006-2.446,5.452-5.451,5.452c-3.006,0-5.452-2.446-5.452-5.452c0-3.005,2.446-5.451,5.452-5.451
			C145.958,194.059,148.404,196.505,148.404,199.51z M178.417,199.51c0,3.006-2.446,5.452-5.451,5.452
			c-3.006,0-5.452-2.446-5.452-5.452c0-3.005,2.446-5.451,5.452-5.451C175.971,194.059,178.417,196.505,178.417,199.51z
			 M129.646,161.387h17.808v18.017h-17.808V161.387z M168.36,161.387l-1.201,18.017h-16.704v-18.017H168.36z M150.456,158.386
			V140.37h19.305l-1.201,18.016H150.456z M182.469,179.404h-12.302l1.201-18.017h13.674L182.469,179.404z M185.47,158.386h-13.902
			l1.201-18.016h15.274L185.47,158.386z M147.454,140.37v18.016h-17.808V140.37H147.454z"/>
	</g>
	<g>
		<path style="fill:#BC445B;" d="M287.19,426.776c39.095,0,70.788-31.693,70.788-70.788c0-39.096-31.693-70.789-70.788-70.789
			h-13.121c-39.095,0-70.788,31.693-70.788,70.789c0,39.095,31.693,70.788,70.788,70.788H287.19z"/>
		
			<ellipse transform="matrix(0.223 -0.9748 0.9748 0.223 -123.8733 556.569)" style="fill:#F08A64;" cx="287.19" cy="355.988" rx="70.788" ry="70.788"/>
		<path style="fill:#F7CA72;" d="M215.191,355.988c0-39.7,32.299-71.998,71.998-71.998s71.998,32.298,71.998,71.998
			c0,39.7-32.298,71.998-71.998,71.998S215.191,395.688,215.191,355.988z M217.611,355.988c0,38.366,31.213,69.578,69.578,69.578
			s69.578-31.213,69.578-69.578c0-38.366-31.213-69.578-69.578-69.578S217.611,317.622,217.611,355.988z"/>
		<circle style="fill:#F9F9F9;" cx="287.19" cy="355.988" r="52.583"/>
		<path style="fill:#F08A64;" d="M294.481,351.565c12.406,2.95,19.482,9.064,19.335,18.266
			c-0.183,11.457-9.264,17.899-20.338,19.121l-0.117,7.352l-10.149-0.162l0.119-7.443c-11.252-1.714-19.722-8.12-20.046-18.954
			l15.021,0.24c0.159,4.198,4.256,7.557,10.796,7.662c6.09,0.052,9.871-2.189,9.935-6.248c0.053-3.293-2.985-5.191-9.278-6.69
			l-5.888-1.402c-11.866-2.851-19.122-8.968-18.974-18.26c0.171-10.735,7.992-17.378,19.428-18.685l0.119-7.443l10.149,0.162
			l-0.119,7.443c12.153,1.818,18.799,9.414,18.874,18.89l-14.524-0.232c-0.075-3.791-3.4-7.454-9.67-7.554
			c-5.683-0.091-8.924,2.249-8.984,5.993c-0.05,3.112,2.983,5.327,8.827,6.683L294.481,351.565z"/>
	</g>
	<g>
		<path style="fill:#366FD1;" d="M203.516,277.154h-92.97c-11.067,0-20.122-9.055-20.122-20.122l0,0
			c0-11.067,9.055-20.122,20.122-20.122h92.97c11.067,0,20.122,9.055,20.122,20.122l0,0
			C223.638,268.099,214.583,277.154,203.516,277.154z"/>
		<text transform="matrix(1 0 0 1 128.9918 265.5921)" style="fill:#F9F9F9; font-family:'Roboto-Bold'; font-size:29.2912px;">BUY</text>
	</g>
	<g>
		<g>
			<path style="fill:#E8AFAF;" d="M163.493,391.992l-6.095,23.509c0,0-16.253,6.095-18.285,12.48h33.377l10.158-35.989H163.493z"/>
			<path style="fill:#3E3A7E;" d="M139.113,427.981h33.377l2.458-8.707h-11.745c-1.161-2.612-5.805-3.773-5.805-3.773
				S141.145,421.596,139.113,427.981z"/>
		</g>
		<g>
			<path style="fill:#E8AFAF;" d="M243.018,391.992l-6.095,23.509c0,0,16.253,6.095,18.285,12.48h-37.634l6.288-35.989H243.018z"/>
			<path style="fill:#3E3A7E;" d="M236.923,415.501c0,0-5.998,1.064-7.74,4.74h-10.257l-1.352,7.74h37.634
				C253.176,421.596,236.923,415.501,236.923,415.501z"/>
		</g>
		<path style="fill:#3E3A7E;" d="M251.912,243.053c0,0,30.467,25.468-10.454,167.597h-23.342l9.577-129.924L179.641,410.65h-24.679
			c0,0,12.925-138.289,43.938-167.646L251.912,243.053z"/>
		<path style="fill:#1D1B4D;" d="M198.899,243.004c-3.125,2.958-6.067,7.024-8.83,11.942c36.247,3.952,61.079-11.426,61.824-11.893
			L198.899,243.004z"/>
		<path style="fill:#E8AFAF;" d="M263.843,211.915l0.749,2.452l8.03-34.947h7.982c0,0,11.651,44.688-3.918,56.425
			c-9.433,7.111-24.673,3.193-24.673,3.193l0.678-27.122H263.843z"/>
		<polygon style="fill:#1D1B4D;" points="263.843,211.915 252.451,216.253 252.69,211.915 		"/>
		<path style="fill:#3F97F7;" d="M224.44,183.795c0,0-33.474-0.068-36.428,27.272l14.418,2.11l-3.531,29.826
			c0,0,37.312,8.389,53.013,0.038l0.778-31.126h11.153C263.843,211.915,259.749,182.125,224.44,183.795z"/>
		<g>
			<path style="fill:#E8AFAF;" d="M237.877,184.862c-3.882-0.889-8.331-1.308-13.437-1.067c0,0-3.592-0.007-8.527,0.944
				c0.337,2.525,2.053,8.933,10.792,9.166C233.622,194.09,236.614,188.77,237.877,184.862z"/>
			<path style="fill:#E8AFAF;" d="M221.731,174.779v12.156c0,2.007,1.627,3.633,3.633,3.633h1.127c2.007,0,3.633-1.627,3.633-3.633
				v-12.156H221.731z"/>
			<path style="fill:#1D1B4D;" d="M223.288,179.42c0,0,1.684,6.214,6.836,6.214v-6.214H223.288z"/>
			<path style="fill:#E8AFAF;" d="M235.276,174.779c0,4.018-3.032,7.275-6.772,7.275c-3.74,0-6.772-3.257-6.772-7.275
				c0-4.018,3.032-7.275,6.772-7.275C232.244,167.504,235.276,170.761,235.276,174.779z"/>
			<path style="fill:#1D1B4D;" d="M220.794,168.213c0,0-0.756-3.959,2.292-5.222c3.048-1.263,10.594,2.19,12.915,0.169
				c0,0,3.555,4.988-1.241,6.684c0,0-3.082,1.825-8.169,0.58c0,0,0.585,5.52-3.213,4.501c-0.842-0.226-1.667,0.42-1.664,1.292
				l0.017,4.618C221.731,180.834,214.264,170.824,220.794,168.213z"/>
			<path style="fill:#E8AFAF;" d="M224.481,174.35c0.421,1.212-0.219,2.535-1.431,2.956c-1.212,0.421-2.535-0.219-2.957-1.431
				c-0.421-1.212,0.219-2.535,1.431-2.956C222.736,172.498,224.06,173.139,224.481,174.35z"/>
		</g>
		<g>
			<path style="fill:#BC445B;" d="M358.47,175.113H252.595v81.919H358.47l23.219-20.488v-44.235L358.47,175.113z M364.627,218.301
				c-3.526,0-6.385-2.859-6.385-6.385c0-3.526,2.859-6.385,6.385-6.385c3.526,0,6.385,2.859,6.385,6.385
				C371.012,215.442,368.154,218.301,364.627,218.301z"/>
			<text transform="matrix(1 0 0 1 290.1451 200.1732)" style="fill:#F9F9F9; font-family:'Roboto-Bold'; font-size:16.1561px;">Cash</text>
			<text transform="matrix(1 0 0 1 272.4781 234.8035)" style="fill:#F9F9F9; font-family:'LeckerliOne'; font-size:35.5846px;">Back</text>
		</g>
		<path style="fill:#E8AFAF;" d="M188.012,211.067c0,0-4.704,24.969,7.676,36.79c0,0,23.334,12.561,43.264-4.853l14.463-10.062
			l-2.757-5.867c0,0-18.584,1.959-40.306,3.147l0.35-16.629L188.012,211.067z"/>
		<path style="fill:#1D1B4D;" d="M187.812,212.316c3.325,0.396,18.018,2.337,22.787,6.177l0.103-4.9l-22.69-2.526
			C188.012,211.067,187.928,211.516,187.812,212.316z"/>
		<path style="fill:#E8AFAF;" d="M283.663,172.361c-3.238-1.079-3.302,2.068-3.302,2.068s0.087,4.361,0.695,4.448
			c0.397,0.057,1.602-2.53,1.933-3.757l2.737,6.451c2.867-0.847,3.258-4.04,6.341-3.388l-0.021-3.453
			c-1.108-1.695-3.391-0.847-4.414-1.136C285.931,173.111,285.56,172.993,283.663,172.361z"/>
		<g>
			<path style="fill:#E8AFAF;" d="M250.408,227.409l0.018-0.025c0.008-0.046,0.019-0.09,0.026-0.136
				C250.441,227.303,250.426,227.357,250.408,227.409z"/>
			<path style="fill:#E8AFAF;" d="M264.584,227.111c2.253-0.769,2.905-1.298,3.854-2.058c0.357-0.286,0.076-0.861-0.37-0.756
				c-3.631,0.851-10.726,1.072-10.726,1.072c-0.512-0.25-0.282-0.778-0.139-1.283c0.236-0.833,0.683-1.542,1.225-2.197
				c0.189-0.228,0.828-0.801,0.514-1.11c-0.332-0.326-1.411,0.312-1.707,0.492c-1.054,0.64-1.833,1.749-2.562,2.719
				c-1,1.329-2.365,2.772-4.014,3.086l-0.233,0.31c-0.042,0.23-0.095,0.455-0.154,0.682c-0.23,0.883-0.217,1.639,0.016,2.542
				c0.432,1.674,2.305,2.316,3.829,2.657c1.666,0.372,3.269,0.338,4.958,0.334c0.974-0.002,1.921-0.05,2.888,0.042
				c0.827,0.078,1.756,0.309,2.574,0.245c0.327-0.984-2.307-1.514-2.908-1.497c0.492-0.252,1.791-0.825,2.624-1.139
				c0.995-0.375,2.368-1.753,3.225-3.05c0.406-0.615-0.094-1.422-0.825-1.332C265.721,226.982,264.734,227.179,264.584,227.111z"/>
		</g>
		<path style="fill:#1D1B4D;" d="M227.693,280.725l10.184-1.757c0,0-11.056,19.645-11.949,28.732L227.693,280.725z"/>
		<g>
			<path style="fill:#B8D9F4;" d="M388.261,266.489c-2.275,0-4.464-0.689-6.543-2.063c-13.822-9.139-18.346-46.595-18.532-48.185
				c-0.093-0.796,0.477-1.517,1.273-1.61c0.793-0.095,1.517,0.477,1.61,1.273c0.011,0.095,1.143,9.618,3.885,20.078
				c3.565,13.601,8.187,22.6,13.366,26.024c2.406,1.591,4.892,1.976,7.6,1.18c3.383-0.995,5.239-2.527,5.675-4.683
				c1.374-6.8-10.34-17.719-15.207-21.693l0.302-0.266v-3.554c0.189,0.155,5.601,4.525,9.942,9.408
				c6.043,6.799,8.67,12.41,7.809,16.678c-0.659,3.265-3.25,5.584-7.701,6.893C390.561,266.316,389.4,266.489,388.261,266.489z"/>
		</g>
	</g>
	<g>
		<g>
			<g>
				<path style="fill:#A8314D;" d="M77.06,327.803c0,7.7,11.284,6.849,21.623,6.849s29.404,0.012,30.07-13.928
					c0.84-17.584-19.731-13.956-30.07-13.956S77.06,320.103,77.06,327.803z M100.529,327.803c0-4.811,4.405-11.822,10.232-16.405
					c2.21,2.473,3.304,5.743,3.304,9.326c0,5.811-2.875,10.783-8.729,12.872C102.409,332.663,100.529,330.945,100.529,327.803z"/>
				<path style="fill:#1D1B4D;" d="M128.753,320.724c0.415-8.685-4.394-12.193-10.612-13.522c-4.239,0.951-7.379,4.196-7.379,4.196
					c2.21,2.473,3.304,5.743,3.304,9.326c0,5.811-2.875,10.783-8.729,12.872c0.477,0.197,2.773,0.368,5.83,0.513
					C119.844,333.052,128.313,329.932,128.753,320.724z"/>
			</g>
			<ellipse style="fill:#BC445B;" cx="95.406" cy="327.095" rx="8.344" ry="7.557"/>
			<g>
				<path style="fill:#BC445B;" d="M70.228,306.768c-10.339,0-30.91-3.628-30.07,13.956c0.666,13.94,19.731,13.928,30.07,13.928
					s21.623,0.851,21.623-6.849C91.85,320.103,80.567,306.768,70.228,306.768z M63.574,333.596
					c-5.854-2.09-8.729-7.061-8.729-12.872c0-3.583,1.094-6.853,3.304-9.326c5.827,4.584,10.232,11.594,10.232,16.405
					C68.381,330.945,66.501,332.663,63.574,333.596z"/>
				<path style="fill:#1D1B4D;" d="M70.228,306.768c-5.527,0-9.54,1.789-12.079,4.63c5.827,4.584,10.232,11.594,10.232,16.405
					c0,3.142-1.88,4.86-4.807,5.793c1.903,0.679,4.118,1.056,6.654,1.056c10.339,0,21.623,0.851,21.623-6.849
					C91.85,320.103,80.567,306.768,70.228,306.768z"/>
			</g>
		</g>
		<g>
			<rect x="25.028" y="344.995" style="fill:#F7CA72;" width="117.25" height="82.987"/>
			<rect x="92.94" y="344.995" style="fill:#F08A64;" width="49.338" height="82.987"/>
			<rect x="25.028" y="344.995" style="fill:#1D1B4D;" width="117.25" height="15.381"/>
			<rect x="20.382" y="333.676" style="fill:#F7CA72;" width="125.379" height="22.637"/>
			<rect x="92.94" y="333.676" style="fill:#F08A64;" width="52.821" height="22.637"/>
			<rect x="43.312" y="333.676" style="fill:#BC445B;" width="16.107" height="22.637"/>
			<rect x="118.44" y="333.676" style="fill:#A8314D;" width="16.107" height="22.637"/>
			<rect x="46.795" y="360.376" style="fill:#BC445B;" width="16.107" height="67.606"/>
			<rect x="114.958" y="360.376" style="fill:#A8314D;" width="16.107" height="67.606"/>
		</g>
		<path style="fill:#BC445B;" d="M96.596,333.836c0,0,18.361-3.257,22.754,11.159c4.349,14.271,21.105,11.125,28.264,10.186
			l-2.707-5.272l10.054-1.978c0,0-18.087-1.729-21.016-6.611C129.947,334.655,124.019,322.497,96.596,333.836z"/>
		<path style="fill:#BC445B;" d="M96.596,333.487c-2.75-4.694-14.387-7.739-19.589-5.797c-12.584,4.698-10.569,20.155-11.531,31.194
			c-0.396,4.55-1.041,11.606-3.864,15.335c2.993-1.706,5.762-3.953,8.329-6.534c0.681,3.066,2.119,6.078,2.781,9.225
			c8.687-6.266,9.866-17.831,11.37-27.563c0.609-3.941,1.104-13.262,4.937-15.859C91.823,331.595,95.231,333.277,96.596,333.487z"/>
	</g>
	<g>
		<path style="fill:#BC445B;" d="M258.713,86.95h-7.252c-16.651,0-30.15,13.498-30.15,30.15s13.499,30.15,30.15,30.15h7.252
			c16.651,0,30.15-13.499,30.15-30.15S275.364,86.95,258.713,86.95z"/>
		
			<ellipse transform="matrix(0.7071 -0.7071 0.7071 0.7071 -7.0269 217.2355)" style="fill:#F7CA72;" cx="258.713" cy="117.1" rx="30.15" ry="30.15"/>
		<text transform="matrix(1 0 0 1 244.1012 132.9622)" style="fill:#BC445B; font-family:'Roboto-Bold'; font-size:43.5133px;">%</text>
	</g>
	<path style="fill:#E8AFAF;" d="M343.234,259.412l-0.81-2.202c-2.606-3.744-7.835-2.016-8.22-1.852
		c-1.722-1.467-3.226-3.874-5.248-3.906c1.114,1.025,1.203,2.685,1.709,4.606c0,0-6.469-2.226-10.557-0.762
		c0,0-0.244,0.608,0.854,0.762c0.733,0.103,2.828,0.423,4.657,1.019c0.41,0.214,1.238,0.628,2.333,1.101
		c0.001,0.001,0.002,0.001,0.003,0.002l0.001,0C331.732,259.808,338.736,262.135,343.234,259.412z"/>
	<g>
		<path style="fill:#F7CA72;" d="M351.852,276.449l2.533,4.631c0.467,0.854,1.169,1.556,2.022,2.023l4.631,2.533
			c0.882,0.483,0.882,1.75,0,2.232l-4.631,2.533c-0.854,0.467-1.556,1.169-2.022,2.023l-2.533,4.631
			c-0.482,0.882-1.75,0.882-2.232,0l-2.533-4.631c-0.467-0.854-1.169-1.556-2.023-2.023l-4.631-2.533
			c-0.882-0.482-0.882-1.749,0-2.232l4.631-2.533c0.854-0.467,1.556-1.169,2.023-2.023l2.533-4.631
			C350.102,275.567,351.37,275.567,351.852,276.449z"/>
		<path style="fill:#F7CA72;" d="M130.188,284.019l2.533,4.631c0.467,0.854,1.169,1.556,2.023,2.023l4.631,2.533
			c0.882,0.483,0.882,1.75,0,2.232l-4.631,2.533c-0.854,0.467-1.556,1.169-2.023,2.022l-2.533,4.631
			c-0.483,0.882-1.75,0.882-2.232,0l-2.533-4.631c-0.467-0.854-1.169-1.556-2.022-2.022l-4.631-2.533
			c-0.882-0.483-0.882-1.75,0-2.232l4.631-2.533c0.854-0.467,1.556-1.169,2.022-2.023l2.533-4.631
			C128.439,283.137,129.706,283.137,130.188,284.019z"/>
		<path style="fill:#F7CA72;" d="M318.258,131.827l2.533,4.631c0.467,0.854,1.169,1.556,2.022,2.022l4.631,2.533
			c0.882,0.482,0.882,1.75,0,2.232l-4.631,2.533c-0.854,0.467-1.556,1.169-2.022,2.023l-2.533,4.631
			c-0.482,0.882-1.749,0.882-2.232,0l-2.533-4.631c-0.467-0.854-1.169-1.556-2.023-2.023l-4.631-2.533
			c-0.882-0.482-0.882-1.749,0-2.232l4.631-2.533c0.854-0.467,1.556-1.169,2.023-2.022l2.533-4.631
			C316.509,130.945,317.776,130.945,318.258,131.827z"/>
		<path style="fill:#F7CA72;" d="M370.255,153.551l1.753,3.205c0.323,0.591,0.809,1.077,1.4,1.4l3.205,1.753
			c0.611,0.334,0.611,1.211,0,1.545l-3.205,1.753c-0.591,0.323-1.077,0.809-1.4,1.4l-1.753,3.205c-0.334,0.611-1.211,0.611-1.545,0
			l-1.753-3.205c-0.323-0.591-0.809-1.077-1.4-1.4l-3.205-1.753c-0.611-0.334-0.611-1.211,0-1.545l3.205-1.753
			c0.591-0.323,1.077-0.809,1.4-1.4l1.753-3.205C369.044,152.94,369.921,152.94,370.255,153.551z"/>
	</g>
	<g>
		
			<ellipse transform="matrix(0.2788 -0.9603 0.9603 0.2788 174.5881 488.3914)" style="fill:#3F97F7;" cx="412.473" cy="127.952" rx="21.869" ry="21.869"/>
		<path style="fill:#F9F9F9;" d="M411.973,137.953c-3.214-0.154-6.185-1.616-8.079-4.943c-0.159-0.279-0.298-0.574-0.404-0.876
			c-0.2-0.565,0.07-1.171,0.603-1.421c0.529-0.249,1.168-0.063,1.477,0.452c0.269,0.449,0.471,0.942,0.774,1.365
			c1.299,1.808,3.094,2.773,5.292,3.017c1.653,0.184,3.209-0.123,4.661-0.94c1.254-0.706,2.198-1.709,2.855-2.986
			c0.061-0.119,0.113-0.244,0.178-0.361c0.328-0.588,0.972-0.805,1.547-0.525c0.571,0.278,0.815,0.933,0.548,1.543
			c-0.57,1.302-1.396,2.421-2.484,3.336C417.119,137.145,414.853,137.959,411.973,137.953z"/>
		<path style="fill:#F9F9F9;" d="M418.151,119.934c1.332,0.003,2.409,1.083,2.407,2.414c-0.003,1.321-1.103,2.417-2.419,2.41
			c-1.32-0.008-2.422-1.112-2.415-2.422C415.731,121.012,416.823,119.931,418.151,119.934z"/>
		<path style="fill:#F9F9F9;" d="M409.586,122.327c0.008,1.327-1.065,2.417-2.393,2.431c-1.315,0.014-2.411-1.073-2.424-2.403
			c-0.013-1.325,1.065-2.414,2.396-2.422C408.499,119.926,409.578,120.993,409.586,122.327z"/>
	</g>
</g>
</svg>
